<mxfile modified="2020-11-21T12:53:58.292Z" host="app.diagrams.net" agent="5.0 (Macintosh; Intel Mac OS X 10_15_7) AppleWebKit/537.36 (KHTML, like Gecko) Chrome/86.0.4240.193 Safari/537.36" etag="BkDbkL3B2NexNbRu8ItB" compressed="false" version="13.6.2" type="device">
  <diagram id="Ht1M8jgEwFfnCIfOTk4-" name="Page-1">
    <mxGraphModel dx="1113" dy="1396" grid="1" gridSize="10" guides="1" tooltips="1" connect="1" arrows="1" fold="1" page="1" pageScale="1" pageWidth="1169" pageHeight="827" math="0" shadow="0">
      <root>
        <mxCell id="0" />
        <mxCell id="1" style="" parent="0" />
        <mxCell id="DxRDYHymx_5IwCW-ZSEX-91" value="Region Virgina (us-east-1)" style="points=[[0,0],[0.25,0],[0.5,0],[0.75,0],[1,0],[1,0.25],[1,0.5],[1,0.75],[1,1],[0.75,1],[0.5,1],[0.25,1],[0,1],[0,0.75],[0,0.5],[0,0.25]];outlineConnect=0;gradientColor=none;html=1;whiteSpace=wrap;fontSize=12;fontStyle=0;shape=mxgraph.aws4.group;grIcon=mxgraph.aws4.group_aws_cloud_alt;strokeColor=#232F3E;fillColor=none;verticalAlign=top;align=left;spacingLeft=30;fontColor=#232F3E;dashed=0;labelBackgroundColor=#ffffff;sketch=0;shadow=0;movable=1;resizable=1;rotatable=1;deletable=1;editable=1;connectable=1;" vertex="1" parent="1">
          <mxGeometry x="160.51" width="600" height="960" as="geometry" />
        </mxCell>
        <mxCell id="DxRDYHymx_5IwCW-ZSEX-162" value="VPC" style="locked=1;" parent="0" />
        <mxCell id="DxRDYHymx_5IwCW-ZSEX-163" value="&lt;b&gt;&lt;font color=&quot;#333333&quot;&gt;VPC (10.0.0.0/16)&lt;/font&gt;&lt;/b&gt;" style="points=[[0,0],[0.25,0],[0.5,0],[0.75,0],[1,0],[1,0.25],[1,0.5],[1,0.75],[1,1],[0.75,1],[0.5,1],[0.25,1],[0,1],[0,0.75],[0,0.5],[0,0.25]];outlineConnect=0;gradientColor=none;html=1;whiteSpace=wrap;fontSize=12;fontStyle=0;shape=mxgraph.aws4.group;grIcon=mxgraph.aws4.group_vpc;strokeColor=#248814;fillColor=none;verticalAlign=top;align=left;spacingLeft=30;fontColor=#AAB7B8;dashed=0;shadow=0;labelBackgroundColor=none;sketch=0;" vertex="1" parent="DxRDYHymx_5IwCW-ZSEX-162">
          <mxGeometry x="180" y="160" width="560" height="780" as="geometry" />
        </mxCell>
        <mxCell id="DxRDYHymx_5IwCW-ZSEX-70" value="elements" parent="0" />
        <mxCell id="DxRDYHymx_5IwCW-ZSEX-75" value="us-east-1a" style="fillColor=none;strokeColor=#5A6C86;dashed=1;verticalAlign=top;fontStyle=1;fontColor=#5A6C86;" vertex="1" parent="DxRDYHymx_5IwCW-ZSEX-70">
          <mxGeometry x="200" y="360" width="160" height="520" as="geometry" />
        </mxCell>
        <mxCell id="DxRDYHymx_5IwCW-ZSEX-77" value="&lt;b&gt;10.0.101.0/24&lt;/b&gt;&lt;br&gt;Public subnet" style="points=[[0,0],[0.25,0],[0.5,0],[0.75,0],[1,0],[1,0.25],[1,0.5],[1,0.75],[1,1],[0.75,1],[0.5,1],[0.25,1],[0,1],[0,0.75],[0,0.5],[0,0.25]];outlineConnect=0;gradientColor=none;html=1;whiteSpace=wrap;fontSize=12;fontStyle=0;shape=mxgraph.aws4.group;grIcon=mxgraph.aws4.group_security_group;grStroke=0;strokeColor=#248814;fillColor=#E9F3E6;verticalAlign=top;align=left;spacingLeft=30;fontColor=#248814;dashed=0;" vertex="1" parent="DxRDYHymx_5IwCW-ZSEX-70">
          <mxGeometry x="200" y="400" width="160" height="160" as="geometry" />
        </mxCell>
        <mxCell id="DxRDYHymx_5IwCW-ZSEX-79" value="&lt;b&gt;10.0.1.0/24&lt;/b&gt;&lt;br&gt;Private subnet" style="points=[[0,0],[0.25,0],[0.5,0],[0.75,0],[1,0],[1,0.25],[1,0.5],[1,0.75],[1,1],[0.75,1],[0.5,1],[0.25,1],[0,1],[0,0.75],[0,0.5],[0,0.25]];outlineConnect=0;gradientColor=none;html=1;whiteSpace=wrap;fontSize=12;fontStyle=0;shape=mxgraph.aws4.group;grIcon=mxgraph.aws4.group_security_group;grStroke=0;strokeColor=#147EBA;fillColor=#E6F2F8;verticalAlign=top;align=left;spacingLeft=30;fontColor=#147EBA;dashed=0;" vertex="1" parent="DxRDYHymx_5IwCW-ZSEX-70">
          <mxGeometry x="200" y="560" width="160" height="320" as="geometry" />
        </mxCell>
        <mxCell id="DxRDYHymx_5IwCW-ZSEX-81" value="&lt;font color=&quot;#cc6600&quot;&gt;Nat Instance /&lt;br&gt;Bastion&lt;/font&gt;" style="outlineConnect=0;fontColor=#232F3E;gradientColor=none;fillColor=#D86613;strokeColor=none;dashed=0;verticalLabelPosition=bottom;verticalAlign=top;align=center;html=1;fontSize=12;fontStyle=0;aspect=fixed;pointerEvents=1;shape=mxgraph.aws4.t2_instance;" vertex="1" parent="DxRDYHymx_5IwCW-ZSEX-70">
          <mxGeometry x="260" y="460" width="40" height="40" as="geometry" />
        </mxCell>
        <mxCell id="DxRDYHymx_5IwCW-ZSEX-82" value="" style="outlineConnect=0;fontColor=#232F3E;gradientColor=none;strokeColor=none;dashed=0;verticalLabelPosition=bottom;verticalAlign=top;align=center;html=1;fontSize=12;fontStyle=0;aspect=fixed;pointerEvents=1;shape=mxgraph.aws4.aurora_instance;fillColor=#CCCCCC;" vertex="1" parent="DxRDYHymx_5IwCW-ZSEX-70">
          <mxGeometry x="249" y="760" width="50" height="50" as="geometry" />
        </mxCell>
        <mxCell id="DxRDYHymx_5IwCW-ZSEX-83" value="" style="edgeStyle=orthogonalEdgeStyle;html=1;endArrow=open;elbow=vertical;startArrow=open;startFill=0;endFill=0;rounded=0;" edge="1" parent="DxRDYHymx_5IwCW-ZSEX-70" source="DxRDYHymx_5IwCW-ZSEX-86" target="DxRDYHymx_5IwCW-ZSEX-82">
          <mxGeometry width="100" relative="1" as="geometry">
            <mxPoint x="250" y="721.25" as="sourcePoint" />
            <mxPoint x="230" y="791" as="targetPoint" />
          </mxGeometry>
        </mxCell>
        <mxCell id="DxRDYHymx_5IwCW-ZSEX-84" value="WebServer" style="text;html=1;strokeColor=none;fillColor=none;align=center;verticalAlign=middle;whiteSpace=wrap;rounded=0;labelBackgroundColor=none;fontColor=#CC6600;" vertex="1" parent="DxRDYHymx_5IwCW-ZSEX-70">
          <mxGeometry x="256" y="610" width="40" height="20" as="geometry" />
        </mxCell>
        <mxCell id="DxRDYHymx_5IwCW-ZSEX-85" value="" style="group" vertex="1" connectable="0" parent="DxRDYHymx_5IwCW-ZSEX-70">
          <mxGeometry x="250" y="630" width="48" height="48" as="geometry" />
        </mxCell>
        <mxCell id="DxRDYHymx_5IwCW-ZSEX-86" value="" style="outlineConnect=0;fontColor=#232F3E;gradientColor=none;fillColor=#D86613;strokeColor=none;dashed=0;verticalLabelPosition=bottom;verticalAlign=top;align=left;html=1;fontSize=12;fontStyle=0;aspect=fixed;pointerEvents=1;shape=mxgraph.aws4.instance2;" vertex="1" parent="DxRDYHymx_5IwCW-ZSEX-85">
          <mxGeometry width="48" height="48" as="geometry" />
        </mxCell>
        <mxCell id="DxRDYHymx_5IwCW-ZSEX-87" value="EC2" style="text;html=1;strokeColor=none;fillColor=none;align=center;verticalAlign=middle;whiteSpace=wrap;rounded=0;labelBackgroundColor=none;fontStyle=1;fontColor=#CC6600;" vertex="1" parent="DxRDYHymx_5IwCW-ZSEX-85">
          <mxGeometry x="4" y="14" width="40" height="20" as="geometry" />
        </mxCell>
        <mxCell id="DxRDYHymx_5IwCW-ZSEX-119" style="edgeStyle=orthogonalEdgeStyle;rounded=0;orthogonalLoop=1;jettySize=auto;html=1;startArrow=oval;startFill=1;strokeColor=#3700CC;fontColor=#6600CC;fillColor=#6a00ff;" edge="1" parent="DxRDYHymx_5IwCW-ZSEX-70" source="DxRDYHymx_5IwCW-ZSEX-90" target="DxRDYHymx_5IwCW-ZSEX-75">
          <mxGeometry relative="1" as="geometry" />
        </mxCell>
        <mxCell id="DxRDYHymx_5IwCW-ZSEX-120" style="edgeStyle=orthogonalEdgeStyle;rounded=0;orthogonalLoop=1;jettySize=auto;html=1;entryX=0.5;entryY=0;entryDx=0;entryDy=0;startArrow=oval;startFill=1;strokeColor=#3700CC;fontColor=#6600CC;fillColor=#6a00ff;" edge="1" parent="DxRDYHymx_5IwCW-ZSEX-70" source="DxRDYHymx_5IwCW-ZSEX-90" target="DxRDYHymx_5IwCW-ZSEX-92">
          <mxGeometry relative="1" as="geometry" />
        </mxCell>
        <mxCell id="DxRDYHymx_5IwCW-ZSEX-92" value="us-east-1b" style="fillColor=none;strokeColor=#5A6C86;dashed=1;verticalAlign=top;fontStyle=1;fontColor=#5A6C86;" vertex="1" parent="DxRDYHymx_5IwCW-ZSEX-70">
          <mxGeometry x="560" y="360" width="160" height="520" as="geometry" />
        </mxCell>
        <mxCell id="DxRDYHymx_5IwCW-ZSEX-93" value="&lt;b&gt;10.0.102.0/24&lt;/b&gt;&lt;br&gt;Public subnet" style="points=[[0,0],[0.25,0],[0.5,0],[0.75,0],[1,0],[1,0.25],[1,0.5],[1,0.75],[1,1],[0.75,1],[0.5,1],[0.25,1],[0,1],[0,0.75],[0,0.5],[0,0.25]];outlineConnect=0;gradientColor=none;html=1;whiteSpace=wrap;fontSize=12;fontStyle=0;shape=mxgraph.aws4.group;grIcon=mxgraph.aws4.group_security_group;grStroke=0;strokeColor=#248814;fillColor=#E9F3E6;verticalAlign=top;align=left;spacingLeft=30;fontColor=#248814;dashed=0;" vertex="1" parent="DxRDYHymx_5IwCW-ZSEX-70">
          <mxGeometry x="560" y="400" width="160" height="160" as="geometry" />
        </mxCell>
        <mxCell id="DxRDYHymx_5IwCW-ZSEX-94" value="&lt;b&gt;10.0.2.0/24&lt;/b&gt;&lt;br&gt;Private subnet" style="points=[[0,0],[0.25,0],[0.5,0],[0.75,0],[1,0],[1,0.25],[1,0.5],[1,0.75],[1,1],[0.75,1],[0.5,1],[0.25,1],[0,1],[0,0.75],[0,0.5],[0,0.25]];outlineConnect=0;gradientColor=none;html=1;whiteSpace=wrap;fontSize=12;fontStyle=0;shape=mxgraph.aws4.group;grIcon=mxgraph.aws4.group_security_group;grStroke=0;strokeColor=#147EBA;fillColor=#E6F2F8;verticalAlign=top;align=left;spacingLeft=30;fontColor=#147EBA;dashed=0;" vertex="1" parent="DxRDYHymx_5IwCW-ZSEX-70">
          <mxGeometry x="560" y="560" width="160" height="320" as="geometry" />
        </mxCell>
        <mxCell id="DxRDYHymx_5IwCW-ZSEX-96" value="" style="outlineConnect=0;fontColor=#232F3E;gradientColor=none;strokeColor=none;dashed=0;verticalLabelPosition=bottom;verticalAlign=top;align=center;html=1;fontSize=12;fontStyle=0;aspect=fixed;pointerEvents=1;shape=mxgraph.aws4.aurora_instance;fillColor=#CCCCCC;" vertex="1" parent="DxRDYHymx_5IwCW-ZSEX-70">
          <mxGeometry x="609" y="760" width="50" height="50" as="geometry" />
        </mxCell>
        <mxCell id="DxRDYHymx_5IwCW-ZSEX-97" value="" style="edgeStyle=orthogonalEdgeStyle;html=1;endArrow=open;elbow=vertical;startArrow=open;startFill=0;endFill=0;rounded=0;" edge="1" parent="DxRDYHymx_5IwCW-ZSEX-70" source="DxRDYHymx_5IwCW-ZSEX-100" target="DxRDYHymx_5IwCW-ZSEX-96">
          <mxGeometry width="100" relative="1" as="geometry">
            <mxPoint x="610" y="721.25" as="sourcePoint" />
            <mxPoint x="590" y="791" as="targetPoint" />
          </mxGeometry>
        </mxCell>
        <mxCell id="DxRDYHymx_5IwCW-ZSEX-98" value="WebServer" style="text;html=1;strokeColor=none;fillColor=none;align=center;verticalAlign=middle;whiteSpace=wrap;rounded=0;labelBackgroundColor=none;fontColor=#CC6600;" vertex="1" parent="DxRDYHymx_5IwCW-ZSEX-70">
          <mxGeometry x="616" y="610" width="40" height="20" as="geometry" />
        </mxCell>
        <mxCell id="DxRDYHymx_5IwCW-ZSEX-99" value="" style="group" vertex="1" connectable="0" parent="DxRDYHymx_5IwCW-ZSEX-70">
          <mxGeometry x="610" y="630" width="48" height="48" as="geometry" />
        </mxCell>
        <mxCell id="DxRDYHymx_5IwCW-ZSEX-100" value="" style="outlineConnect=0;fontColor=#232F3E;gradientColor=none;fillColor=#D86613;strokeColor=none;dashed=0;verticalLabelPosition=bottom;verticalAlign=top;align=left;html=1;fontSize=12;fontStyle=0;aspect=fixed;pointerEvents=1;shape=mxgraph.aws4.instance2;" vertex="1" parent="DxRDYHymx_5IwCW-ZSEX-99">
          <mxGeometry width="48" height="48" as="geometry" />
        </mxCell>
        <mxCell id="DxRDYHymx_5IwCW-ZSEX-101" value="EC2" style="text;html=1;strokeColor=none;fillColor=none;align=center;verticalAlign=middle;whiteSpace=wrap;rounded=0;labelBackgroundColor=none;fontStyle=1;fontColor=#CC6600;" vertex="1" parent="DxRDYHymx_5IwCW-ZSEX-99">
          <mxGeometry x="4" y="14" width="40" height="20" as="geometry" />
        </mxCell>
        <mxCell id="DxRDYHymx_5IwCW-ZSEX-116" style="edgeStyle=orthogonalEdgeStyle;rounded=0;orthogonalLoop=1;jettySize=auto;html=1;dashed=1;startArrow=oval;startFill=1;strokeColor=#56517e;fontColor=#6600CC;fillColor=#d0cee2;" edge="1" parent="DxRDYHymx_5IwCW-ZSEX-70" source="DxRDYHymx_5IwCW-ZSEX-104" target="DxRDYHymx_5IwCW-ZSEX-115">
          <mxGeometry relative="1" as="geometry">
            <Array as="points">
              <mxPoint x="540" y="750" />
            </Array>
          </mxGeometry>
        </mxCell>
        <mxCell id="DxRDYHymx_5IwCW-ZSEX-167" style="edgeStyle=orthogonalEdgeStyle;rounded=0;orthogonalLoop=1;jettySize=auto;html=1;startArrow=oval;startFill=1;strokeColor=#2D7600;fontColor=#6600CC;dashed=1;fillColor=#60a917;" edge="1" parent="DxRDYHymx_5IwCW-ZSEX-70" source="DxRDYHymx_5IwCW-ZSEX-105" target="DxRDYHymx_5IwCW-ZSEX-117">
          <mxGeometry relative="1" as="geometry">
            <Array as="points">
              <mxPoint x="459" y="360" />
              <mxPoint x="400" y="360" />
              <mxPoint x="400" y="170" />
            </Array>
          </mxGeometry>
        </mxCell>
        <mxCell id="DxRDYHymx_5IwCW-ZSEX-191" style="edgeStyle=orthogonalEdgeStyle;rounded=0;orthogonalLoop=1;jettySize=auto;html=1;entryX=0.5;entryY=0;entryDx=0;entryDy=0;entryPerimeter=0;dashed=1;startArrow=oval;startFill=1;strokeColor=#ae4132;strokeWidth=1;fontColor=#009900;fillColor=#fad9d5;" edge="1" parent="DxRDYHymx_5IwCW-ZSEX-70" source="DxRDYHymx_5IwCW-ZSEX-115" target="DxRDYHymx_5IwCW-ZSEX-186">
          <mxGeometry relative="1" as="geometry" />
        </mxCell>
        <mxCell id="DxRDYHymx_5IwCW-ZSEX-115" value="" style="outlineConnect=0;strokeColor=#ae4132;dashed=0;verticalLabelPosition=bottom;verticalAlign=top;align=center;html=1;fontSize=12;fontStyle=0;aspect=fixed;pointerEvents=1;shape=mxgraph.aws4.internet_alt1;shadow=0;labelBackgroundColor=none;sketch=0;fillColor=#fad9d5;" vertex="1" parent="DxRDYHymx_5IwCW-ZSEX-70">
          <mxGeometry x="510" y="-80" width="65" height="40" as="geometry" />
        </mxCell>
        <mxCell id="DxRDYHymx_5IwCW-ZSEX-117" value="&lt;font color=&quot;#4c0099&quot;&gt;IGW&lt;/font&gt;" style="outlineConnect=0;fontColor=#232F3E;fillColor=#5A30B5;dashed=0;verticalLabelPosition=bottom;verticalAlign=top;align=center;html=1;fontSize=12;fontStyle=0;aspect=fixed;pointerEvents=1;shape=mxgraph.aws4.internet_gateway;shadow=0;labelBackgroundColor=none;sketch=0;strokeColor=none;labelBorderColor=none;" vertex="1" parent="DxRDYHymx_5IwCW-ZSEX-70">
          <mxGeometry x="439.95" y="140" width="38" height="38" as="geometry" />
        </mxCell>
        <mxCell id="DxRDYHymx_5IwCW-ZSEX-165" value="" style="group" vertex="1" connectable="0" parent="DxRDYHymx_5IwCW-ZSEX-70">
          <mxGeometry x="438.95" y="240" width="40" height="61" as="geometry" />
        </mxCell>
        <mxCell id="DxRDYHymx_5IwCW-ZSEX-90" value="" style="outlineConnect=0;fontColor=#232F3E;gradientColor=none;fillColor=#5A30B5;strokeColor=none;dashed=0;verticalLabelPosition=bottom;verticalAlign=top;align=center;html=1;fontSize=12;fontStyle=0;aspect=fixed;pointerEvents=1;shape=mxgraph.aws4.network_load_balancer;labelBackgroundColor=none;rotation=90;" vertex="1" parent="DxRDYHymx_5IwCW-ZSEX-165">
          <mxGeometry width="40" height="40" as="geometry" />
        </mxCell>
        <mxCell id="DxRDYHymx_5IwCW-ZSEX-103" value="ALB" style="text;html=1;strokeColor=none;fillColor=none;align=center;verticalAlign=middle;whiteSpace=wrap;rounded=0;shadow=0;labelBackgroundColor=none;sketch=0;fontColor=#6600CC;" vertex="1" parent="DxRDYHymx_5IwCW-ZSEX-165">
          <mxGeometry y="41" width="40" height="20" as="geometry" />
        </mxCell>
        <mxCell id="DxRDYHymx_5IwCW-ZSEX-168" value="" style="group" vertex="1" connectable="0" parent="DxRDYHymx_5IwCW-ZSEX-70">
          <mxGeometry x="359.95" y="750" width="200.10866064414768" height="40" as="geometry" />
        </mxCell>
        <mxCell id="DxRDYHymx_5IwCW-ZSEX-107" value="" style="edgeStyle=orthogonalEdgeStyle;html=1;endArrow=open;elbow=vertical;startArrow=open;startFill=0;endFill=0;strokeColor=#006EAF;rounded=0;fontColor=#6600CC;fillColor=#1ba1e2;dashed=1;opacity=30;" edge="1" parent="DxRDYHymx_5IwCW-ZSEX-168" target="DxRDYHymx_5IwCW-ZSEX-106">
          <mxGeometry width="100" relative="1" as="geometry">
            <mxPoint y="20" as="sourcePoint" />
            <mxPoint x="70" y="20" as="targetPoint" />
          </mxGeometry>
        </mxCell>
        <mxCell id="DxRDYHymx_5IwCW-ZSEX-108" value="" style="edgeStyle=orthogonalEdgeStyle;html=1;endArrow=open;elbow=vertical;startArrow=open;startFill=0;endFill=0;strokeColor=#006EAF;rounded=0;fontColor=#6600CC;fillColor=#1ba1e2;dashed=1;opacity=30;" edge="1" parent="DxRDYHymx_5IwCW-ZSEX-168">
          <mxGeometry width="100" relative="1" as="geometry">
            <mxPoint x="120" y="20" as="sourcePoint" />
            <mxPoint x="200.10866064414768" y="20" as="targetPoint" />
          </mxGeometry>
        </mxCell>
        <mxCell id="DxRDYHymx_5IwCW-ZSEX-170" value="" style="group" vertex="1" connectable="0" parent="DxRDYHymx_5IwCW-ZSEX-70">
          <mxGeometry x="358.90000000000003" y="400" width="200.10866064414762" height="40" as="geometry" />
        </mxCell>
        <mxCell id="DxRDYHymx_5IwCW-ZSEX-105" value="&lt;font color=&quot;#009900&quot;&gt;RTB Public&lt;/font&gt;" style="outlineConnect=0;dashed=0;verticalLabelPosition=bottom;verticalAlign=top;align=center;html=1;fontSize=12;fontStyle=0;aspect=fixed;pointerEvents=1;shape=mxgraph.aws4.route_table;shadow=0;labelBackgroundColor=none;sketch=0;fillColor=#60a917;fontColor=#ffffff;strokeColor=none;" vertex="1" parent="DxRDYHymx_5IwCW-ZSEX-170">
          <mxGeometry x="79.52999999999997" width="41.05" height="40" as="geometry" />
        </mxCell>
        <mxCell id="DxRDYHymx_5IwCW-ZSEX-112" value="" style="edgeStyle=orthogonalEdgeStyle;html=1;endArrow=open;elbow=vertical;startArrow=open;startFill=0;endFill=0;strokeColor=#2D7600;rounded=0;fontColor=#6600CC;dashed=1;fillColor=#60a917;opacity=30;" edge="1" parent="DxRDYHymx_5IwCW-ZSEX-170">
          <mxGeometry width="100" relative="1" as="geometry">
            <mxPoint y="20" as="sourcePoint" />
            <mxPoint x="80.10866064414768" y="20" as="targetPoint" />
          </mxGeometry>
        </mxCell>
        <mxCell id="DxRDYHymx_5IwCW-ZSEX-113" value="" style="edgeStyle=orthogonalEdgeStyle;html=1;endArrow=open;elbow=vertical;startArrow=open;startFill=0;endFill=0;strokeColor=#2D7600;rounded=0;fontColor=#6600CC;dashed=1;fillColor=#60a917;opacity=30;" edge="1" parent="DxRDYHymx_5IwCW-ZSEX-170">
          <mxGeometry width="100" relative="1" as="geometry">
            <mxPoint x="120" y="20" as="sourcePoint" />
            <mxPoint x="200.10866064414762" y="20" as="targetPoint" />
          </mxGeometry>
        </mxCell>
        <mxCell id="DxRDYHymx_5IwCW-ZSEX-114" style="edgeStyle=orthogonalEdgeStyle;rounded=0;orthogonalLoop=1;jettySize=auto;html=1;dashed=1;startArrow=oval;startFill=1;strokeColor=#000000;fontColor=#6600CC;opacity=30;" edge="1" parent="DxRDYHymx_5IwCW-ZSEX-70" source="DxRDYHymx_5IwCW-ZSEX-106" target="DxRDYHymx_5IwCW-ZSEX-104">
          <mxGeometry relative="1" as="geometry" />
        </mxCell>
        <mxCell id="DxRDYHymx_5IwCW-ZSEX-106" value="&lt;font color=&quot;#0066cc&quot;&gt;RTB Private&lt;/font&gt;" style="outlineConnect=0;fontColor=#ffffff;fillColor=#1ba1e2;dashed=0;verticalLabelPosition=bottom;verticalAlign=top;align=center;html=1;fontSize=12;fontStyle=0;aspect=fixed;pointerEvents=1;shape=mxgraph.aws4.route_table;shadow=0;labelBackgroundColor=none;sketch=0;strokeColor=none;" vertex="1" parent="DxRDYHymx_5IwCW-ZSEX-70">
          <mxGeometry x="439.98" y="820" width="41.05" height="40" as="geometry" />
        </mxCell>
        <mxCell id="DxRDYHymx_5IwCW-ZSEX-169" value="" style="group" vertex="1" connectable="0" parent="DxRDYHymx_5IwCW-ZSEX-70">
          <mxGeometry x="438.97999999999996" y="700" width="41" height="70" as="geometry" />
        </mxCell>
        <mxCell id="DxRDYHymx_5IwCW-ZSEX-104" value="" style="outlineConnect=0;fontColor=#232F3E;gradientColor=none;fillColor=#5A30B5;strokeColor=none;dashed=0;verticalLabelPosition=bottom;verticalAlign=top;align=center;html=1;fontSize=12;fontStyle=0;aspect=fixed;pointerEvents=1;shape=mxgraph.aws4.nat_gateway;shadow=0;labelBackgroundColor=none;sketch=0;rotation=-90;" vertex="1" parent="DxRDYHymx_5IwCW-ZSEX-169">
          <mxGeometry x="1" y="30" width="40" height="40" as="geometry" />
        </mxCell>
        <mxCell id="DxRDYHymx_5IwCW-ZSEX-111" value="&lt;span style=&quot;background-color: rgb(255 , 255 , 255)&quot;&gt;&lt;font color=&quot;#4c0099&quot;&gt;NAT Gateway&lt;/font&gt;&lt;/span&gt;" style="text;html=1;strokeColor=none;fillColor=none;align=center;verticalAlign=middle;whiteSpace=wrap;rounded=0;shadow=0;labelBackgroundColor=none;sketch=0;fontColor=#6600CC;" vertex="1" parent="DxRDYHymx_5IwCW-ZSEX-169">
          <mxGeometry width="40" height="20" as="geometry" />
        </mxCell>
        <mxCell id="DxRDYHymx_5IwCW-ZSEX-176" value="" style="group;container=1;" vertex="1" connectable="0" parent="DxRDYHymx_5IwCW-ZSEX-70">
          <mxGeometry x="360" y="600" width="200" height="45" as="geometry" />
        </mxCell>
        <mxCell id="DxRDYHymx_5IwCW-ZSEX-177" value="" style="group" vertex="1" connectable="0" parent="DxRDYHymx_5IwCW-ZSEX-176">
          <mxGeometry y="-5" width="200" height="50" as="geometry" />
        </mxCell>
        <mxCell id="DxRDYHymx_5IwCW-ZSEX-172" value="&lt;font color=&quot;#cc6600&quot;&gt;Auto Scaling&lt;/font&gt;" style="outlineConnect=0;fontColor=#232F3E;gradientColor=none;fillColor=#D05C17;strokeColor=none;dashed=0;verticalLabelPosition=bottom;verticalAlign=top;align=center;html=1;fontSize=12;fontStyle=0;aspect=fixed;pointerEvents=1;shape=mxgraph.aws4.auto_scaling2;shadow=0;labelBackgroundColor=none;sketch=0;" vertex="1" parent="DxRDYHymx_5IwCW-ZSEX-177">
          <mxGeometry x="75" width="50" height="50" as="geometry" />
        </mxCell>
        <mxCell id="DxRDYHymx_5IwCW-ZSEX-174" value="" style="edgeStyle=orthogonalEdgeStyle;html=1;endArrow=none;elbow=vertical;startArrow=block;startFill=1;rounded=0;fontColor=#6600CC;strokeColor=#CC6600;" edge="1" parent="DxRDYHymx_5IwCW-ZSEX-177">
          <mxGeometry width="100" relative="1" as="geometry">
            <mxPoint y="25" as="sourcePoint" />
            <mxPoint x="70" y="25" as="targetPoint" />
          </mxGeometry>
        </mxCell>
        <mxCell id="DxRDYHymx_5IwCW-ZSEX-175" value="" style="edgeStyle=orthogonalEdgeStyle;html=1;endArrow=block;elbow=vertical;startArrow=none;endFill=1;rounded=0;fontColor=#6600CC;strokeColor=#CC6600;" edge="1" parent="DxRDYHymx_5IwCW-ZSEX-177">
          <mxGeometry width="100" relative="1" as="geometry">
            <mxPoint x="130" y="25" as="sourcePoint" />
            <mxPoint x="200" y="25" as="targetPoint" />
          </mxGeometry>
        </mxCell>
        <mxCell id="DxRDYHymx_5IwCW-ZSEX-178" value="&lt;font color=&quot;#009900&quot;&gt;CloudWatch&lt;/font&gt;" style="outlineConnect=0;fontColor=#ffffff;fillColor=#60a917;dashed=0;verticalLabelPosition=bottom;verticalAlign=top;align=center;html=1;fontSize=12;fontStyle=0;aspect=fixed;pointerEvents=1;shape=mxgraph.aws4.instance_with_cloudwatch2;shadow=0;labelBackgroundColor=none;sketch=0;strokeColor=none;" vertex="1" parent="DxRDYHymx_5IwCW-ZSEX-70">
          <mxGeometry x="680" y="60" width="40" height="40" as="geometry" />
        </mxCell>
        <mxCell id="DxRDYHymx_5IwCW-ZSEX-179" value="&lt;font color=&quot;#cc6600&quot;&gt;Lambda&lt;/font&gt;" style="outlineConnect=0;fontColor=#232F3E;gradientColor=none;fillColor=#D05C17;strokeColor=none;dashed=0;verticalLabelPosition=bottom;verticalAlign=top;align=center;html=1;fontSize=12;fontStyle=0;aspect=fixed;pointerEvents=1;shape=mxgraph.aws4.lambda_function;shadow=0;labelBackgroundColor=none;sketch=0;" vertex="1" parent="DxRDYHymx_5IwCW-ZSEX-70">
          <mxGeometry x="600" y="60" width="40" height="40" as="geometry" />
        </mxCell>
        <mxCell id="DxRDYHymx_5IwCW-ZSEX-181" value="&lt;h1&gt;&lt;font style=&quot;font-size: 16px&quot;&gt;Trigger Lambda&lt;/font&gt;&lt;/h1&gt;&lt;p&gt;Update Launch Configuration and attach to Auto Scaling Group.&lt;/p&gt;&lt;p&gt;Purpose: Update AMI when deploy&lt;/p&gt;" style="text;html=1;strokeColor=#BD7000;fillColor=#f0a30a;spacing=5;spacingTop=-20;whiteSpace=wrap;overflow=hidden;rounded=0;shadow=0;labelBackgroundColor=none;sketch=0;fontColor=#ffffff;" vertex="1" parent="DxRDYHymx_5IwCW-ZSEX-70">
          <mxGeometry x="796" y="52" width="190" height="120" as="geometry" />
        </mxCell>
        <mxCell id="DxRDYHymx_5IwCW-ZSEX-182" value="&lt;h1&gt;&lt;span style=&quot;font-size: 16px&quot;&gt;CloudWatch Trigger Auto Scaling&lt;/span&gt;&lt;/h1&gt;&lt;p&gt;EC2 memory &amp;gt; 75% =&amp;gt; Scale-out&lt;/p&gt;&lt;p&gt;EC2 memory &amp;lt; 20% =&amp;gt; Scale-in&lt;/p&gt;" style="text;html=1;strokeColor=#005700;fillColor=#008a00;spacing=5;spacingTop=-20;whiteSpace=wrap;overflow=hidden;rounded=0;shadow=0;labelBackgroundColor=none;sketch=0;fontColor=#ffffff;" vertex="1" parent="DxRDYHymx_5IwCW-ZSEX-70">
          <mxGeometry x="796" y="210.5" width="190" height="139.5" as="geometry" />
        </mxCell>
        <mxCell id="DxRDYHymx_5IwCW-ZSEX-189" style="edgeStyle=orthogonalEdgeStyle;rounded=0;orthogonalLoop=1;jettySize=auto;html=1;startArrow=oval;startFill=1;strokeWidth=1;fontColor=#009900;strokeColor=#CCCCCC;dashed=1;" edge="1" parent="DxRDYHymx_5IwCW-ZSEX-70" source="DxRDYHymx_5IwCW-ZSEX-186" target="DxRDYHymx_5IwCW-ZSEX-188">
          <mxGeometry relative="1" as="geometry" />
        </mxCell>
        <mxCell id="DxRDYHymx_5IwCW-ZSEX-186" value="&lt;font color=&quot;#cccccc&quot;&gt;Route 53&lt;/font&gt;" style="outlineConnect=0;dashed=0;verticalLabelPosition=bottom;verticalAlign=top;align=center;html=1;shape=mxgraph.aws3.route_53;gradientColor=none;shadow=0;labelBackgroundColor=none;sketch=0;strokeColor=#4C0099;fontColor=#009900;fillColor=#E6E6E6;" vertex="1" parent="DxRDYHymx_5IwCW-ZSEX-70">
          <mxGeometry x="439.98" y="60" width="32.98" height="40" as="geometry" />
        </mxCell>
        <mxCell id="DxRDYHymx_5IwCW-ZSEX-187" value="&lt;font color=&quot;#cccccc&quot;&gt;S3&lt;/font&gt;" style="pointerEvents=1;shadow=0;dashed=0;html=1;strokeColor=none;labelPosition=center;verticalLabelPosition=bottom;verticalAlign=top;align=center;outlineConnect=0;shape=mxgraph.veeam2.aws_s3;labelBackgroundColor=none;sketch=0;fontColor=#009900;fillColor=#CCCCCC;" vertex="1" parent="DxRDYHymx_5IwCW-ZSEX-70">
          <mxGeometry x="200" y="60" width="40" height="40" as="geometry" />
        </mxCell>
        <mxCell id="DxRDYHymx_5IwCW-ZSEX-190" style="edgeStyle=orthogonalEdgeStyle;rounded=0;orthogonalLoop=1;jettySize=auto;html=1;dashed=1;startArrow=oval;startFill=1;strokeColor=#CCCCCC;strokeWidth=1;fontColor=#009900;" edge="1" parent="DxRDYHymx_5IwCW-ZSEX-70" source="DxRDYHymx_5IwCW-ZSEX-188" target="DxRDYHymx_5IwCW-ZSEX-187">
          <mxGeometry relative="1" as="geometry" />
        </mxCell>
        <mxCell id="DxRDYHymx_5IwCW-ZSEX-188" value="&lt;font color=&quot;#cccccc&quot;&gt;CloudFront&lt;/font&gt;" style="outlineConnect=0;dashed=0;verticalLabelPosition=bottom;verticalAlign=top;align=center;html=1;shape=mxgraph.aws3.cloudfront;gradientColor=none;shadow=0;labelBackgroundColor=none;sketch=0;fontColor=#009900;strokeColor=none;fillColor=#E6E6E6;" vertex="1" parent="DxRDYHymx_5IwCW-ZSEX-70">
          <mxGeometry x="320" y="60" width="32.9" height="40" as="geometry" />
        </mxCell>
        <mxCell id="DxRDYHymx_5IwCW-ZSEX-192" value="&lt;h1&gt;&lt;font style=&quot;font-size: 16px&quot;&gt;Unavailable&lt;/font&gt;&lt;/h1&gt;&lt;p&gt;&lt;br class=&quot;Apple-interchange-newline&quot;&gt;&lt;span style=&quot;color: rgb(32 , 33 , 36) ; font-family: &amp;#34;arial&amp;#34; , sans-serif&quot;&gt;&lt;font style=&quot;font-size: 12px&quot;&gt;Gray icons are not created yet. Depending on the specifics of the project.&lt;/font&gt;&lt;/span&gt;&lt;br&gt;&lt;/p&gt;" style="text;html=1;spacing=5;spacingTop=-20;whiteSpace=wrap;overflow=hidden;rounded=0;shadow=0;labelBackgroundColor=none;sketch=0;fillColor=#bac8d3;strokeColor=#23445d;" vertex="1" parent="DxRDYHymx_5IwCW-ZSEX-70">
          <mxGeometry x="796" y="400" width="190" height="120" as="geometry" />
        </mxCell>
        <mxCell id="DxRDYHymx_5IwCW-ZSEX-193" value="" style="shape=image;verticalLabelPosition=bottom;labelBackgroundColor=#ffffff;verticalAlign=top;aspect=fixed;imageAspect=0;image=data:image/png,iVBORw0KGgoAAAANSUhEUgAAAhwAAADZCAYAAABrROlSAABtiElEQVR42uyc50tWfRzG/QOC3gcV7YL2nraTBkXQLhrQXhTUiwiatDftAgcOnKi4cOEW90sFERHcE/fW6+H6wi0PhGU+8ih4feCH59b7/M4594vz/Zzr+7t1ghBCDJHe3l6EhIRoaGho/NWoqKiAE4QQYoh0dHTAyclJQ0ND469GcHCwhEMIMTzhWL9+PZydnTU0NDQGHRMnTpRwCCH+m3BwWwghfsfGjRslHEIICYcQQsIhhBiDSDiEEBIOIYSEQwgxppBwCCEkHEIICYcQYmzyfwtHf38/RhMen0MIIeEQQjgYReHgdmhoKPLy8tDX14fBaG5uRlNT0x+LeGdnJ8LDw/Hlyxf4+Pigrq4OQ4H7JSYmory8HFlZWSgoKMBw6OrqQlpaGn78+AE3NzcUFhZCCCHhEEKQURSO7OxsTJo0CYcPH0ZDQwMGw8/PD+/fv2dB/22qwPctXLgQZ86cwbx583Dnzh20tLTgT1BMXFxcEBkZiZcvX8Lb2xvDISgoCFOnTsW+ffuwcuVKbN++HWVlZRBCSDiEEKMkHN3d3bh37x7mzp2LOXPmID09nf8CnQWf6YTJxZUrV2x72bJlLOSWQgQGBmLRokVYvHgxPn78yGRkYL5bt25h586dllCkpqbiyZMnqK6uxtevX7Ft2zbs2bMHKSkpSE5Oxo4dO0wy3rx5g5KSEr424fjw4QMCAgKQkZFh4nLq1Cne/Pg3m+v69evYsmULLl++bOfa09MD0traigULFuDhw4e8RpOYq1evIi4ujgIzME9xcTHu37+PyZMnY/PmzTyOXfvNmze5n0nT69evkZubi5MnT+L06dPYunUr4uPj7VqFGA9IOIQQIyYclZWVJgEeHh44duwYi6wJx4ULFygBbHPYTcfX15dFl0JgsrBhwwY8evQInz9/NlEpLS11JBwmBVOmTMHSpUtx8OBBmzs/Px+zZ8/Gu3fvcOTIEUoJRcVk59mzZxQXJi02f0REBC5dusTjcy6Tgm/fvnE/Oy93d3dLUL5//45du3bxdyY6pKamBjNmzEBYWJilNU+fPqUwWYvl1atXmDVrlv308vKy9MPf3x8XL17kedpNddOmTWhra8Pbt29x9uxZyhUli+dtn8+BAwesrSTEeEDCIYQYMeGIiYnBhAkTrLiuWbOGhZwFlQWfRXdAOKKjo9lOseKdk5ODtWvXmkQUFRVh+fLliI2NBeHTP5MNrsFISkpiusDEwQr76tWrmSwwoeBPCofNvW7dOixZsoTzOoSDyYUJR1RUFFsiPCdLSq5du8YWDQXBjvX8+fNfhGPmzJkmFPX19XYN06ZN41oOm+/8+fO8Jjv2iRMn+DmYTK1YsQKurq4mHO3t7RQvfia8BiYglBcmLpQokzQhxgMSDiHEiAnH7du37Un/7t27VsynT5/ONggLM5/o2TrhOgwKhxXsQ4cOMYngPpZu/Pz5kwmACQRhMacssG3CYs1kgq0YJg6cmyLAVgZFgQLCbS7uZMGncFAuBhOOx48fs+Vhx5w/fz48PT1/STjYWjl+/LjNHRISwtYM05Z/CwffyxYRJYeiZHPu3r2bQsE2kR1///79DuGgsLAdw9dKOMS4QsIhhBgR4WDrgG0KFlMWahZStk0+ffqEhIQEph1WiJ2dnSkhLOAs0lwPwWLPJ38WdkcbxtFSsW+FHD16lCkIb1g2f2Njo0nNqlWrsHfvXiYgbHdwf7Y0bIFnZmYmt7m2g3JBSbDtc+fOcW2GicmLFy/4LRa2ZHhubJEMCIcDpi48PqWI18fWDxMWzvfgwQN7b21tLW7cuMF0hS0la7lUVVWZZLn8w975xlRVxnF84xVveOFWLaesVZICAhPCsBZ2QZQRf+JvBQFDaEBCyB+hXZAILIzi3wKaSBhoE3ADCd0EyhKJSGJu6ht16nilUzfmRR2K8u38nsHmQl7IvO7x3u9n+27cc895zrln7D6f/Z7f7tmyRa5TZEid38nJSao48nnZw0HsCgoHIeRZ/A6HTMwLJlcRC5EKQZYeZBx5/X/kOJEEef/RbSI5UgWZfy1jyPFPgEiANH9K/4dIgFRL5LoWXKecXz7DYsh5ZR9pjH30OMk8IlrypSsyIvsRYk9QOAghz8UPf1kL6aeQvgupXMjyivRqWIuJiQmpjihRIsTeoHAQQuxaOAghoHAQQvSFwkEIoXAQQigchBCtoHAQQigchBAKByFETygchBAKByGEwkEI0QoKByGEwkEIoXAQQvSEwkEIoXAQQigchBCtoHAQQigchBAKB9GPvLw8eQAXY/2oJ67qylMQDnmAmhb32R4iD5UjZFEoHERHjC8u+adhrB81UejK0xAOs9msxX22hzg6OoKQRaFwEB2ZF44dO5Jw+HA1Y4WYzVvtSjgiI9/T4r7bYvbt+5LCQbSAwkGWLByHDu0G8C9jhfT21tiVcBjyqsV9t8VcvdpP4SBaQOEgFA4NQ+FgKBzE1qBwEAqHhqFwMBQOYmtQOAiFQ8NQOBgKB7E1KByEwqFhKBwMhYPYGhQOQuHQMBQOhsJBbA0KB9FKOB4+HMPk5B84f74bV670YXr6b7X95s3fcefO8JLGvH37JG7dOoEbN36DxXJCbbt+fVDOM3e+P+XvBcfNzo7h3r1RY59Tjx1XjpmaGqJwUDi0DoWD6AKFg2glHKOjP8NkehPu7q9j5cqXUF6eoSb26OgAtLeXL2nM5uYSVFRkIjExBPn5CcbkOAI/Pw+kpIQr8UhPj0Zp6acLjhNJaWwswoUL3Qvee/DgFLKzP0J9fYGICYWDwqFtKBxEFygcRBvhmJn5B0lJ7yMk5B2cPduJrq7d8PBYhf7+BkM4ArF/f7mqVlRV5SAszB8dHd/g7t2/MDDQiGPHfoDFMmTsU4Fz5zoxNXUSe/eWKGHZvj0elZVZaGr6AkFBb+HSpV44O7+MwEBfY98ubN7sh+7u73DxYg9yc+NRXLwVY2PtakwXF2cUFCQq6enrq0VmZgxaW0vV+Nu2xSE83N94/xPs2WOWa6NwUDi0C4WD6AKFg2gjHDJhu7q+igMHKjA7O79tWElFTMwmEQ5VqfD1dcOuXZ/Bze01NDcXq+pEUVEyrl3rR2SkSclDXV0+vLxckJERjeXLX0BtbZ5apvHxcUVb21cIDX3XkIWNakx/f2+cOdOBwsIkpKV9oCofGzZ44uDBr7FixYsiGVJdkfMpefH2XmN89m9FOOR6lZCsXv0Kjh6tp3BQOLQLhYPoAoWDaCUcMnHPCYf0V8z1XQyJcKjKQlxcEBoaClU1JCsrDunpUSgpSZ0TjgFERZnQ2VmJ7OwPkZubgPv3R5GT8zGqqj6XpRQRDhEHea2EYe3aVYiN3aTO09JSoion69atkSUX6SFR1Zbjx39UAhMfH6zGO336F1y+3KuOLytLx/T0CAICfHHkSB2Fg8KhXawlHDMzM2hpaUFsbKxKQkICxsfHYU0sFgsmJydBnk8oHEQb4RCJkEldqg+ypCLi4enpgpGRVkM4AtHWVobU1AipRKhlkYiIjaq6sXNnGlJSwjA8/BPWr3eX6oMSkOTkUOm/UP0fNTV50muhnlHi4OCAwcEmJS7LljmhujpXNaV6eb0hPRuqL8Nk8jGE41cEB7+Nnp7v8R87ZxpbRRWG4fAD+aEBQ0hKIhZZBBpQWiQspY2NP0DEpRqTUqyCYKuVUPalIpYK1NYWl6IUFCxKWCKtaaq0iCwFxAISpCiLkSi7YqTBuKQa9fg+XzLJTVqkVaj3knOSGy4zc2fmzpzOec77vt8tLp6JHcP+zJ6pri4GOAAXBUtrZc8MclVVXuG4msBBpqamZjkg+E/bAaioYk2uow+cPPkBdp1ZcseOlTc3g8Pn1C/XY6fRJzmflt5XrDn1k2JTw7ZsWerOndvU1PF1PXdzDELJpswdOVIWdsDR0NDgsrOz9fe2QdfmpGzIT92oUaPc2bNnFfD+Ref/idu/fz/bafLwp67d5/ob/dgdP37cwOHMmTMC+N9Zr8nCd8pF/aG/wx/c9u2Exr80oKmvr3c7duxQtmuPrsVPsi6Xa4LxrPU33yKveeDwLWyAA1UDaIiL6y3lgdBoFBkMHrqW4VizZgF5DlsfH9/fLJN9+96xwaNHjy5SL/rYeVVUFEmVWEb+AkhANZGlYsDBOiwWBhr2ZWpHbW0p6orlMYYN628qSWxsL1QMLBpUD/YnmOkH0GDBkBNBYSFP4oGjlYCjvLzQdep0o4K/aahKl9oOYKRPoJA1Wnf6dJVLSRkukBxK3+BFjqdZ96SkJNulpz+oAbMC6w0QaOl91SBc6jp0uEG2YF/1z2j6HEDQaLtTpzZi63FuHFf9dzr9N+yAIycnx+3cuZP3Os63+lu5D5AQxC+WsjhZFuQUV1paKlXwM5eamipFcD7PD4ORwsJChba/13c95VauXCn4Oqd+MFOThdmyQp9yu3btkmX6hkFNRkaG7M/VUi4nKef1mIGIb5HXPHD4FjbAEZTF1tdbWaxmTRsZzG35xYs1WCKUqOrBtsnWX7iwje2xOTSrqma2iK3CYEQVCQ9aBpjQklr2x/9Zz+e0D97v5WHO/lBOmIUG2/CefaK+sEzHLcd+YXtm0uwXUOKcKeH1wHGVgAMgTE9Pdl27dhYUxnKfuL/YZnbfjx4tM1Vr69YS17PnzQzWUgU2aLCbDyRieQGYmnGvRjVD4RJQViogPEGQuwKI0KD2EAFifSaH8mnAhYop1DPAFvWLcwBEUdkMWvPyJnJcwEGDbwZ9AvVLM/0EvpMG3FTrP6HAkZAQa+rZ7t1vAbZYdCgeWh6nB/IAt3btIlQcfYfbAFuC0LIu5tEXOR5wq0F4nDt4cJ3OYyxqIH0S65Dr0JrAAQDIfhwi6/EeBhOpimMNHBITExWyfl85qHUGC1lZWVKnaugn3HOpO1ukTM5D2dD1/FrX+lVB/Tapm/cqBL5ZE43npSS+4ObMmSPYeplluhZf8K+Uydf0N/eX8y3ymgcO38IKOPzLA0dTLyqIAAdskMTEOGwugIFlBgt7976taxVHdZHgYiC5HOCDKicsM4K9bAswYtmhiKGaoaBpRl6NPcZyzbonAyeUZ2tGfjdWmvr7YFQVcjwGHIcPb+AcOKYBSnLyna6gIMt163aTLUtKuoOwsoFIr15dsWJCgQNo0gA8mjJtVUtFAULsT9ficZefP0mqWzeOHwAHGSUDnFWr5ltgecmSWZwjliMKHBYfFVVSa4a48+c3tyZwCNjmAg+ysH5FqdC1SBboHdG5D0X9QNEwYEhLSxNEfQMoCJrydL6bsEaAE93br1xRURH7MVDJzc2lXwArUh9rAQ/yIeRFBIofmerhW2Q2Dxy+eeAIw9e1CBxsg7f/b4CDwbV9++s14x1nqsD48Q+gcgTAwQANcDDgGjwsWvQ0wAF8oH5J9n/Tde/exdXVMYiVYpFhswEJQAYZIeUD5qKAoRjw+ywAAQqHwcm0aY9oewMO8hRABXADpABB2u96LDcpFa9gB3Ic9kP4uBFwREV1dKNHDyePRN6Ic8fKQ7UjIxRUUgXAISUgne8NjGDpoMixHVVZshkXci5UVgE9KICtChzAAfYIjTwGYED+YsyYMVJ6qnVt1quybIFK0pdijbAtfVr3Zit2CzYJ1oopJQcOHEAhIeehKrSFssXepX8IyD7ElpF9+aJsyyqWGeD4FnnNA4dvEQ8cGiQ0QC/m4ct7LA7kZn43A+sjLM7xSgEH4Ts88/z8/OClGe8Sk6WDphkmIb6wAw5msJmZmQQJCQg2GziwswACrAiqj1AmsE3I+1AiTWlzbu6T2CgAB+oCgABkUIVEmbTZI337dleGZzEAQcYDYGCwBk6kZoyg/BkQEczcT39CaVCAcTmh41CFA6sG64PPk++hKsrKqgcP7qfcwQrOE6vGAsV9+tzSCDh0TOy5YJngwdQbIAMVg+wRxw1ROJ7AQuE78FmsGPJDqBpmJ3Xs2N61a3cd59XqVSrYICgbQSNAeuLECapVAAqFup8j06GA7Y+oGLqO01FBAA7ZVPtkiU1FwdA9eg+I0P2pIPsh++p12agXCZBix6CG0K/p5ygkZsX4FnnNA4dvEQ8c+OHx8bdLvo5mVglk8PsclNAy46NiAY+b6gLWkQUhE0AYlWoAluuBWMP/WYdXzk+ahy1wHDp0iAe7BuGHbfZYWVmprMpp1AMe7IKtg8jXbEsJIQ9uHub8X9/rNyoB9P1/ZoaKxE36n/CeraOxLVUErL+SwFFXVydLYICLiYmRCjERKV1Wx4zLAQeWB7kFBlhyNwzQ6oODGOiZ+ZPJsHs/YsRQ7rMqkqayDOXAbI2BA2NsQF+27BnuLSDAemAFSwJlQTBUgrLAMs2uM4EEgp1YHQoR30UWg88DHhxfn0vSdV4LnOj6v0Seg9wGNo+sgDzgx8AjOrpzKHAIUlZrwE0iOxRakSLrZgbAwnlh8/AZ9sd+UTbIbti+R46M5zwBJECC68F7ci303bD6HQ6gkldI3+X/AAbqB30vdD2NZYAM24aCTeh2Pr8Rwc0Dh28taQxqdJqwAo6ysgK8espaNYuawoyYXxmVbzwSuZ1ZKQ9zZsmE6kj92yCSksJveszmIY7/TQksP3Muyb43PjnS9f8NHJrt3kopYPBCWmZGyUMY2ZkgXjCYE86T1z8LGRt5mtmhvmMKM0RmjXyO6gFZBY9Kzp9A+I5SRSoC+B0FvHZghKAe6yXRF3DMS734fAAcvGfZZV8JCQmuTZs2rm3btqo46SS1ocd//R0OwrqhShbvdX32/M3e3f1KdZVhAL9oC9JWqa2NFGukalKt1qpoaqtJq6a0p1Q+WitVMdJGPkRImsbYkNRajA2Boja1WqRCKALxA5ImpXBjDBdyAektkZj4BxgjN8YLL8jx+e1kJcPxMB1gzrBnZq1kcZiZPXv2zOzZ77Oe93mf11+TeZyg3vkcIBTA9HgnU+a+TmalVMP0OjEX0S2sobsAhgBhrEuvPjSOK8fUTVR9kqCVoNltYlZ6DuyL99INcPjMe/qODh061IDUmRp0GwDtDA/AmXDVe2rNtDAY51EBRx3dKNPkyf9uBW0lrRwtq8j7Q+Fe3yrAIa9tJUsciG4/c+bPBXCE2t2XYPsYkSHBHSqdWZeVZGjc7cCHVaz3gnIn3EPHCxQqUC434EhKgC7gzTKp9LERUwEHD4SAqIdRznLf7gckQr8fl1Mn2pMbl1sHPPL5vKoEMemE510IMSLy6J6XVfsTqG379Jrnm7YpgMP/3dd1Hj582PkDcFhtx8X1fUlb3DZSxl+YMWmZTZseBzgwJ0VXMRMzTMEvMCCFRekKOGbNmuV7eLvpPMF6Occ62YqLZhawFWbX0X/2AkPHv8N7asVcv359o0cZ51EBRx1dVyJWzfPmzWsuVuWideWVV7YGcEQ4FwA0F0BoPBWuvXYOUSDAEQHbhDw+3wz0dN7HDWj4UNbfpfq3IpQ3TzB+0H5sA5gwZsJ6tAJwnEc0Oh3gACBcsK1QieuwFlZ5Lrxy50BB2Yb6XwVBtAAbIoz8IrCS0s4lTJakOaQ7+q7hOHHihHSKCgbHbhXdi4bDil/qYGYCd+/l2hiPodQEXUxKBTu2aNEi+gtgQcVJEYdeyHCuAbRSgD2lYABk151RHNGlVMBRAUcd3YagQEU+d+5cDp3Jh38mhlw3twZwROWv9FAqBa2MxZDDp+GQ26bcl0vnu4DVsD3AoSdKB+CYcFEOyPg8c6mhBRxARQEcAgZGygqP6dLExISVK78EF3SKf9vzO4g2YUe0D//EdkixuD86hb/1G3A4JiLC6BJOC2K9iEb5WkhvMeuio6DX8b3QWdA3DEoj5PhogrBo/WzSZ6qmcb56r8p/i0vqhU6VKwSywFk/AAd2LQzgK8413xMwABRg0KToaIWcW/wxsG4YLDog5yS30QI47EOJK9Enhg6Tlt5Ee1W12KdFjdvOC+CXKBRQ9joeE6SlYBiB2U7asAChpkx21apVDQtrYPNWr15tu+ZY2jQq4KiAo44ugwDxwIED6HjBK+zBtQnqL0bA9+VWAA70NaDBK0FO2wp0165neS4I2PwJVA+wSyfuC6X5aPQNWxgpaVkPcOg0G0p6gzQMi3R20rwUUOLy960FHOXCDyCUC+2ePXtc4AEL96sGkUJxQeYAKX+sPNH/Ezy/xkNBNQuWg+GSlSiNDr8DoKTfgKOIBnsti/X9SG+pKpE2UC1CyEmHg7VSjiplVuzBCUZVgRAOAyW0GzQ8gngC4wEBHUvCxVMVkzREAtcRr8Wcy/eebV/vZDEYuhFpYr8IN5XRRhPzdboRnh4JmLvsz36ZdSnB9VoM5wpgsl+GY0Uf4jgdt+c7x4hhdTK2L1UtqquSynydEZ1zmljU+TlVg+L4gQvaE318MHxYvTz2l0sFHKpPAsZf87uP78gpVSICfn5rLylvxYSltcBS5xz9DhFoPptbpPQAVufVVMBBW+TaAZDku3wE2ABcnK/ORft0uwBmYFi1i22BGiJp4JjWCGD2ms5t1S7Kce3HtUoVl3O62U+bRgUcFXDUMf0QnASDsAU/E3wEqggzb1eO1roqlbeZLsoEoK04lkH5cLjQu8D53vbv3084isVwIbbKFBTibbGvVAVIu7TO+Cu9Sth/09kAlAnshzlusvtWdUIIzOaeJ4dALzXmPp4WGIOkjfaoUFG6KpAL6sAI9ir331bKV3Ouv+m50nLF9KscA0DKQp+vhmOgz3AMnEEdQy6gCwV6wR+gJTzmw6ETseoX4lGsm31jZVSncCV12zEkKG7jLEo7pALGZ8FTI9/TCs6mwAwTM2nCzs/GZ6BXENddgEO5r+2wen0BHMpWCS4xCBgDrAIQoKx5+fLlqozyWd9pQeIxjELe+wMRcB8kTMZITAUctjUBTyWzyqT95b2hZBZr4XqDrQNYOJHGQv47YSY/gUmRAnQOAx/OY6ADq1IAN4CR7+9LtBLSg0BMqypaKuCogKOOKQMNaXWzdu1aP44SiDRccvFpZVnsKM4+GH+htbEggAWg6OLrYi44AB1AQqudRrEOCxbM16Om6CiUfqoEARbodFRpAB1YhQT09VkBNxVIvDhyvv5SxVEpj3Uf0MHLAhjg6UFQDNBEW3ILPw/OoVxAS1oCG6bElcanVK5gT7JK36kRIHaNWyh7clVQ0TqsTmrgIA8NvhlAg8aBXkvn4XzuLzMuUx5bHlcphYHDengeLw/7BYyIQh0vVqSAZ2yJfQJRUoKcTz0GCPUdcGCkaHquu+46v39AFXiQ/sCAWJgAIdgHzIKqKjblnjct4JD68BgmA4ChC8FiFKGy50oDYlIwHJg6DIeqK+AZ6wpweE0eNMC0axb2xP8dn2OjYcKgtGlUwFEBRx0do+TxrSzk8F0sZsCHA2VttdiKwD6AKUhVp9GLZjjeLyA7X2g2cn5+z+oesyDoYyeACmZYNDjJ+S8HGpQ3Axz8OqRNpNcADkGeFgNoSOVVo+Wh+QFsgBJgQxAv3xnbcdofnhtYMhoJx4BB4fvRbD9//o0FcNAAea5jUaWSlMTilCEvjrPo/QCHdIl0ECdT6Z5Spg1weH/ABTYF+ACksCc+mwKAeMbQJXFA1QROqsfx+k1JJwIc/UqpABzFSC7H8ikAAShQVs2wS+k0JkOw15jN/1mTe+5U0WjE2r/vBBxJlT1l//aBIbFPKREgAsABZuxT+iafyb3SKIBLARyYESlDQMX/8/k+JvWjMosw2v4aMNOmUQFHBRx1ZKDUrQqsDuRI/ahnyPhL4HDB5J0xFIr/0NUu6AlgD1tBClQChUCD0paHJyIUNFhk81yQX2cSJc8vby+oCZIVcJTRu4aDloZ5lr96miTIf06agdNnAuAOWgmBGRPAiwUQkBbRiA3giGbgs7ah0wE4BHzMgPSHv5gHaROGX8SpUiJACU1GaRoo/QHgACRSPICK4yU2znf+5OSNN74bQAA4pFk0ccNicA3FjkT39H026RgLjAxwwznU+/FaWBeAw7mkNBu7QfvBlIwNOn2GSp3ymQAdwJaOyQmyfygiU4CDXqkfgIMxXLkOAAjcQ91H6Ml4TjDXHbZsKx0CXCi5nmo7njTSv4jPmdCVfUrT0gvRfGBGMBnY1Px+/hEQ9ldluVgN96uYUp7PI0Y6xrnm+Y7L/Squyuu7H7PhetZc19o0KuCogGPshx85MykrA3nSGXYaRSULCFadqGEiTaWobJkjGtsZKneHAC5YNyWtu3c/60Is8BP6yWXbXgBHPasoQbNbfVL7W63aBv1OTGgbQcZ9qGerT0JSltGOh2gPHS+wTHe8nkc0qO9G+mJ8nI+HFXLEal/h/xHh3D2OUUt7AETQUgkjL98JsHTyFCwq4OgdcBSWA8MB8NFD6NQqwEpFEFb63lSO0HBgMVh+S7Xo+CoYA4K2ob2gl3DeqWbCPmhRHy3Co9gD51RAyFelRLym1+60HicodgyAJOMt5wVBK7Yjcz0GBODQWwWIkYpxnECq3i6AECBBhOocYqPueYShUj4EsI7TNvbpvAFEAKvp2tdjdjzOIbfcF3HqHvb+3k8rnEbrqICjAo46CtUp/ypPSuRlBTPT1uZWjfLsLsCcHyNyu8+qlPI/K7sPoZxLnwt+GR4TFKwSUdYu0u4DAGIY9UEAIM+dH7Zkm+ZeVrpy+4SDVq2EfR5Hy/PdQG/TBeTvQ+ynS8WAQGElHODwI6vnzgs2kGN/ARA/cRwoc5S41TOmgyBQ8GO9TZwI8LDOFhiBGyvTiON+RSCIHamA48K7xQJqAKcgfKmpOiBW2gK7QLeBhehMfQGq52PmVEV1gkYgt9wGkrELgKbzvIORKNudc5zn8xXxmKmXioocrNmFpB9bZW1eRwUcFXDUgWokGowa/nFNkwbVS0XAlWNOiuI5F3fiPhd8LIeumsoXwxw8RM1PcS8oKEXU5VPAV/IX2viHWa2+grKWBwcirDTlyIu9s5UoUGPVaIWoqyimA12tBNF+3Vcu8NIgAEuT+7/hhrles3gthAJ/DWDBZKDgrVRR7KF791tVs1O3krZ6lnoxlep6DyyuA+TeUGoJHAEzFXB0BxwzPQV5FSWAB/1Ev7REQAUAGtr/T/3Yn3Mb8wFouV0BxwiMCjgq4Bi7Qdil9EzJmFIyedABAQ4UcwDHA9qAAxxsyAEJ+W/24gyWIkb7Bqo5Af5eOWzgJAzMkwI/wKGSIOKy32AMUNs8N9Dj2n0DA15HeSHQERbjeU22UNUu4IAGAaDUhzz4Ob040NF8Hq6++h3+eo7gJB1CHKjpV0r0lmFZlF0yEpMGwrYINPaTbY5JnWhjTnPgGFDcApvjpSWogOP/AcdIWZu3cVbA0Y5RAccUwBHBDRVynQOaBFQDGsRe1N3K0RKYd9JuDLxbLLoamCDYQ09jOPbu/THAkcAKcLxBYGkbAjiBXZCXbiGSOwdwoJsL4NCaHPNx660fIL6zvYCdk/qnBXBgMqIF+EHK+94pv+9YSrMt7IX9ASoBEQc7j1nqhK8CvQbBIAaDd0PSLLc7PuJRGhIUOXDCeIqGg87D+8sxvGA1TZQIcFXAUQFHBRxjOirgmAI48o8bdQ5oUnsPaGjWxcBHjTtW47K1pxd8VRpIYxDy0ToI+kePviSNwZVRWaDqDm2/gQRgQ7COqPRVbILnUu4L8hGh7qWzkK4R6Kn+CUkBGtS51yiaDPtRQtlZMWK/tgF2phN1AhNMlexXSaTb2BKCPWJGx1JajMu7Y04AIRoRlTgcIqV6lGtW0WgFHBVwjPGogGN6wKG+mzCuzhmas2fPGgjgIAzV40AdPGGoMrYex0yWxYYheELw7iUAd9+m9+05TKog4Oiodbn7Lmm/bpvdt3kLcKInSUXOvloWWwFHBRxjNpQEayPAqIztAEdVRmaMFS38xm1MBzjUnLfihzKqkzPhgACHuvgujbgGDjiKeBQLMMjP3Gtyl8SiDNr0C4NDD1IBRwUcFXCM2XAN5ux70003TV511VW6bes509i6j+OogGMIAIeqEgJP25fJDKfjcS6h3RBzqwBHnRVwVMBRAce4DEJ910zdtq+44gruqI052jiOCjiGAHA4YTdv3szqN4LIj6HnYnK0pViPc/DTxIjjX25VwDEKswKOOivgGJ3B0n327NmRK8xtHFTHdVTAMQSAA7BQVcLmV/dE6NhtAiT9BbSM939VL6g6LZv1HtBsiaUwwagOivKHUix6I6xZs0Y/BIZfrIT1OYjJ0AusgSvgqICjAo4RmqMIONKMkHHh0EzX+oULF2rPrxNuK46px8lSvgKOYZ4Xq+GgxQAUAJBysSY+OnnypE6KOoGmdPSbeguk78PTsYJ+RhMk26lOiWHV3RomAS0aLOkiqkwWSEkTqMWeJ3D0CjjSeGkpK+86+z/1AhkrwJEma6343Edxxip95ADHHXfc0YpKw3GYEblWwDHMs1+AQ1oFgID2MR3SKlIvxUl069atTL60mi5tpnV2TAfK+2Ij/mCcNRcJaJ4XO+5tF5JSacUPYRzmuACOOmd0jizgmDNn9uQ118yps/9TNeXwA46URSpLbEXgH3bAAVAcOXKkAA5MhVbN8X44o+trrLWfAziwHGgx7AfAkQZXG6RWpFKSFvmj5zXplh4HoGNfdQ5g6nXT1tEHwKFteSs+53GYUq2jMgrgOHbs1624po/iTOPB4QYcHCU5R7K05iTJRImZk26PF9GqXC8L3SD11mBvzWSJuZMOkEoRPc6JcjpLaeZNOi5O10uB26QGXEycWgU4VKZs3LixAA6aC9oNLZ0BDnqMWGpvirvm8jQV+7RgFf+Ht9x20ijHkloBLuKuuRTTEevt/RiQRgdSRx2XAjjqqCOjAo4RmUMNOE6fPjR5883vTcOwJdpIJ+jO0wmxsYpesuQegEPjI1bSWj9zbuSdkOcd1MBIG2cuk3wNdPjU+6JpR75ixSJ/NdbS+jxBdt3k9de/C/DQdVS3UeDC62t/rmkXL4bmGJYtuzftqo8CFoyZoh7epzU1x8jYVn9y8vjx3Y6FZ0QrAAeg0Vn66v9nz56dNPxl8qXVvP1KkWjMRpfhr/tWrlzJ/Mu2Klvyvv9tn2ZzXx11VMBRxzCMCjgq4Ojm0qihFZdNimlW01mZv5wX3a6XhvbgqY44Orlu3SOTCxbM14Icw5Ag+TuNtDwnWoUXPQ48aL5lmzTE+qhW05pjabCl42cYgBU6eHq9KN+/FfHkt1ll69WRFf2dkxMTd+vsaRudQTle6g5qX+4DRAJgdkzOm/ceHUy1sM6+nrrcgCPg6z8BWSe6VpGoUmGfC2yY0ianTp2SepEGwWY0PVXqqKMCjjqGeVTAUQFH16ZdmIfFi78gjeI+oMP/NeMCOBL4t0/eddft0hwBFz8X7PXS0CArLMQRfTJsFybit9qM68mRD+QZj+tnoUW51uc6dOpz4bWSVviIPhmAi4ZbPkDPjY5hSwLz07YHVvTXADy0LtcITCfQNOz6MKCS2+tUYwBNlwNwhN35L41FwNb/2Lv/WKvrOo7jf2VzzdXU/FkXUEDyB6WmOFJLDAcaNnHySyW1wCJlREiawK28EBExBDEEvRKGIQ0ZCsOYDGdK+Udpm3Nza05XptSGq//Zt/fjM78bw8NPgXvOue/39t09fM/3e+73nO/hvp+f94/X+7sxYv2PCkIPJBIGTpxXR0U8tq9XSummJXCktZ8lcCRw7C/CYfiVNIUUBtAwsVM6pQaOgIB5WuOASLR5rjb2O7Qh5tbAYdS446RFPBcFlE/H1NDHotviK2o3DNgyCVSapJx/wgmfqk4++TNqOWKI1oJ4TxcZGW7yZ4msdHfPiSKqb0RdxAZwY2iY6IkUigiHiInUTRRdTjeSvCeAg4aG2gyV/AE/f6vS0prJEjjSGlgCR5tsLQsctrfeekZ0IQZoXV6GWXV0nAYEQIe0SRQzriojvDs7JxuyFYWOVwGHiD4MDIGqCX4CDqChXiM6LcZU48ZdE1GRwVGPsL0Uhg4c2BG6EuMj7fAcKPG6pSh0/vy7vScRESkStR0BHJ1AI6IGj0rLhNzsNxW0muoZEYWHq2HDLgEgUWA57ZgDh3oKIl86Uoh2SZWIVKSlNZMlcKQ1sASONtlaGjhs0iEzZ34rWjcngA2RjijUXKP2QjFoFGsur6ZOHRfHTIxx4c+AhXiuy791oTiujBPfsmWp1yjjwVesuN++OPYVnS9SKKHCucN5ij/9Xq8Vk/pu0Q0jlSIyIpWixiOg5jdgx++INtLJIh4KS72W4lJAIiJyrICDPLlWwbi2e6RQMg2S1rSWwJHWwBI42mRreeCwgQhwsY/npVQcs+eI770nbXL+AOMQf+8r8Tr7HCfueVuP6XCIaohkzJ49u5ozZ06kkf5ZpaU1syVwpDWwBI422doCOHL7CHCIYlAMVRgahavPlcLPtLRmtwSOtAaWwNEmW68CDlEN+ht+1pER0Q9RisaFqQ33UzX1XFPcwL2BQyGoQWzd3d0UQkvba1paq1gCR1oDS+Bok61XAQcdDddCSRQw0NOg77558+KPHKvWQn3Hm2+u33s/UTGdJ01xA/cCDpLjUUD7/TJ4LS2t1SyBI62BJXC0ydargIMKqWu5/fZRofT5IuGuGji0qwKRELSaGt0vG6sdO7qrwYMHKPykuUGzQ/dLAY2uru8pENUeS5/DOQEmT4OYHgeOCRMmxH+YF8qo+bS0VrMEjrQG1vbAEY0JmhXi7/afjlZzBRkJatsJHMcSOEaMGGrTSVI0Oi68sAh0Vbfeem119dWXhsMeUfQ1Vq36SXXqqSdWY8YM1/Ja1EqvuurLMTF1Ge0P2h0h632tfR+23H4NtPQ4cKxfvz67UNJa1hI40hpY2wPHI4/cHzIK14ug1/uM4TAeQ9elMRw6JY3iAA0WzDofdVP6aQMVFsEfRuJfIjJpi3ETL1LCJlxJGyrkEZ7yGgkcxwI4Jk8eTR+jqJTOmvXtSI9cGWJgXYCCdkb59ymnnOjmEfyKyakPFsgYMuR8YmHlRl9++Ze0x9LrACtUSSmK+oL0OHCMHz/e7JPSCpuW1mqWwJHWwHodcKgvXLp0ZuhInWeBTAtKVN2cL7PAqGLH3/oR9tGXIipJk8pxAIO6dT1Gg3RDjKDoIlrptUJbqk8ty5DAcZSBg1y52SZUQymDqscIxdF51ELdpNDjWKLWAzHG9NOvhrbHL8CEmS2AwlA2wEHfA3CUD/DVV580GyXUSbf3NHCY0mrOScDUrBAu+0dGO9JayhI40hpYrwQOvoVfmT79Fgtek9H5IVELc8M8lu4nblnPEVMmAELivQwQmTcvLFSl76ABZUFdohsTJ15n1lc0SyRwHM0N6QGOkCxfGOmSk0QpAIf5KpRDpVLcsBLleOedTdIpHpNDd7Nq4CCNHkJfjxIOo1bqHCJgyLIp2mK1wG7dujVmwNwZX7p1VVpaq1gCR1oD63XAoZuSSvVNN31dmt8iV2qlhowSeb/iigs9BiOEKKO+cFXxYa+//pTBoXWKxU8RDqraFsVF4HLu3CkJHEd7U2NBohwYGC0PIN5++1mj4t1o5EghlPw4wozJqJsRofyZiIcbpKVWHs25xs67mfJiMaPkhaboUgEcjGy5qa4iHWan7Ny5M6XM05reEjjSGlivAI5+/c4w/LMAxpIl91SXXnqeAaGUsj0uwDF06GD/NmIjUihn18DBP/FdgAN8SKcYEGqERqRZxpkz5hwzwmKsRwJHbkdR2nz58uXVlClTIiT3lyotrZktgSOtgbU9cET3Y4DAzfWmNjDGUfw8/m7fVLpXFiyYKlph6nkZn9HZOanse++9P1SLF/8wFsXbLJBjNMdMUfjosnzcubosjdaIhfNajRBRZPpStXHjItPLs4Yjt6MCHEbJBx3/Nb7IiofWZEFpWtNaAkdaA2t74NiH8KSRHXvvE2U/mPOda2uK99I0wBEfoAmuQkNN8YHsY5NTQ5iUSaVQpF+kZxTr2B85tSUo86DmvjhOW9K7724JDZAHD/ZLIbUjd2dA3WGNp9+1a5eZKmarRFro75liSWs6S+BIa2C9Ejjacetx4NBmqjhz27ZfN8UHso/NCHv5MJCgi0V4yjXT4VCkYzy+Yw70Ouo+FJuaLgu0hL3Ax8HWoCj8MW32sICD+SO+ZcsWY+pLR0taWjNZAkdaA2tZ4LCgppVhwXoY5zddhKLlgUMHyOjRwzhi+aYQ0xqpCEZhTDwuYlzaTrX6+Hf0EHd4Loo9N+kMUWCjkKbIlI8adWW8kas9pxg0/n1FdcYZnw1l0etLHuuJJx4ox19zzWUxNv7OWO1Pii/Cnz2Oop0f1xNltcaCAl8SvdByZOGgb6iOO+4TWmqNsI/UxAPU4fQ/R3HmOpW/EflYFT/Hu4bS77x27TwRDBXGjqP0VqqFTzrp09Xw4UP8Hn3TUXC6HcCUaz377M+5TkWp5bnbbhulEEh3TSlmXbhwmmKgwwYOxkyOnTFjRry/pRGp+VeVlnYgS+BIa2c70sDBZ/m737fv6dWAAR1qLkTID+pcBZ2Ur/v1O7PatGkxXxYyB5uPxHVRM+WbYqG8TqS+6Hi8//7W9gcO9Mexd3ZO5uwJbekRjsrcO6qOjtPC0c8AE3qGHVdAYfXqn3LKRWp82LBLyrF33TWmOvfcs6ply35E6ERFrupe6p9SEHHTL1OVCxZU9qoILsdcfPEXdJxoLwIP9XWFLsdc7bAiDwp0wEx8ULOqc87pE+2mD9VtRREhKMChP9prkEMvKZa77x5bHX/8J8vrLFr0Ay234EalsahItCydS3hMO64W21JdfNFFgxQHeQ/UT0VNtNuGAup1vnixb5COGUVDAAT5fhzgYBFd+h9lUkJhATP/rtLS9mcJHGntbEcQOACDRSq/EAWay8pis3//zysdICDJh8SC71YLY74vFp9LgQV/oaDTeA3+zcKU2ih/IcIdhaGb4pjpIe3wq9CIWqDrhE+JRfkaPoFulC4V+/g+vkMq3lgOPjTe24rqtdee5GNE5UXZ+VdpfqUBfFVMGL8RiLguGlQWxvbzfX5H6wKHi7daF0EAHyIDK1fOql5+uZvsuJthlV+gYtKkG8oNGzlyKMcdUYCfuSHhrB9X0cvxa3fVVhQf8r2kyr1uDTX+7aaBASCh/oLjDqCY6KYKe9XXhf7oc6iVEEWhSOrG+PK4mXsDRxRk/tb70yIbkucrQ5vjHHBTWm27uqbonRa1sYm0iOgU2Hj++YdFPwKe5lOJU11cruuss84k2EKKFliBopK6eeON30unABYRkI8NHGz37t3mrpSfaWn7swSOtHa2IwkcnPwFF/S3sOWDRDak4yPtvoG/EY3Xpurvf/iUZ/kRi04ReDO8iFFadAMDStex8P6ihS0fyY8Yp2HhDUwAAoEw0uf8UEDCQ0XDo0+f06lqR5fifRa2SgLsIwLmp8gGyOFbat0pi3qzxoiJ6Zzxe4hiirQ7h/9rXeBwI0QiOHXwUQOHSAGYABxSFLNnf0fvsKgDcgtoGKdI0zGiA7FKL8ChHkRKxmuITBBN4aD1JEfaZDIIkI4BEip9pSnKtd133+17XpcpsQE157sZIANwSJcQ+XITauBwLW4Q4AAVtRiLG+Ox4lKKbwTHhNNEa9R5iORoX/IezGUJwHrMF0u6BZHGOQODMNcCDmpxIIXwGOBAtR4HfR5ShCNSVv8N8LpXp0q9mSxbF44GPf8nhNC2V2lp+7QEjrQ2tiMJHKIRHLWxGXWzwAcfbBcxiCh8X+nxkiIZNKgvPwNARLg5fj7E4tVi22BQkW0+TKQhYKQ/nycCYeFNfyMEHkeHbscMJQD8rIiKBbrIvEVv8YE33zwSUBjb4VwgIUoCYkCPfUBGBESKn68CKhbe/KmIezx/QSx+N7QucNjIsY4dO5xwFvDwIUTI53dmnljt+8ClM0xjVTDJsbsRqBDFCVFx/MJDohTgIV7zlzWxuXk+bPCCNjn+uoDHeeop3KA9rwmJkjX3YbvR0hxubERdhpBHj22amwAo4mbfSNte+Ew6BS2CB1AQoDENLLmGSPuMRbReR8RGuscXTYSH8JhaFr/Ll8igHVDkHFEQX0xfILACmuw/1BoOf7wD5Hb8n717AbarLM8APNxBbpMJONFgRhigKTQVdWwqiYgZiBQC2AsajUB7IkhKJJEWAlgDASSNeGkkQLgYaQCD9QahoFbLUDDVTiy1I1Wpo1Zbe1NHHUdndBy377Nm/vGw55Dsc9jnnLXP+dfMP+fstddea+29117f+7/f+71fzvuOztKlS+PF/1gu5C/lc/8hU7Ds+99zIX++gJO8p68mr/e/SmixH/lMvhM0/Q3rOJliRQKAvpzP+Vuet11Q/fdt1zw/yiUM1Llhdo6qY/xHfm+v67R16RPgyP3hm634rKfLePDBBzuDvvQRcNAGCupij3u+VLgYiJk3CTV5ZOQlxc/xGtsgBc9Lw3aAgMlxUhkrC+AQC8QHk1ApGHHGvsWGTIrf5H8yAfEMCEmsW6WJm9SNOMXXQx8V4MJkFouCuQc4HAPIEHvsx0Q48oVrTY6ds/P1/OADDtSTNyVY91BSKpUwmjpkaYqRHNUgTB71mJGRBDMYBMfrzsuVY/c6bC+F083sdO/b8N66t+0+ZxeKC3SsotHk+v4Fu4HZyPF+kvzdDblgL0ib/VtyYd1NQBp26LLQbyvyY1kWRuUjqaj5LOMwI0Ds7DAuXwuYerfXRXNzXoDXP6l8Ce32xwFjNzYgZpRLwNwpzr+O8R8B7Sd12rr0CXAA0K34rKfL2LZtW2fQl36LRk1oMRjSE/R/QIB7uAmztDgmW5UiNgTgwHADHCarAIftaCeIO6VEFCeYcNonYDFr1kwpDq6kCg6aCfHs2YcXwGFybBJu0ksPKF1jOyy9AgzHNOEHOExqFU9gZRRqkC6Y4Mo6ABwEsEDI4AMOwZeIxYfq8QQNDm0oLCwFUNCKkqHdDMIeuhHsRz8AB1YiF/WqaGA+xgZdxQrgEN3J9diKVMS8CxDJhXhNLuJPYy/C+pxFaJrc4BCGJHqX+wCRMDQfTPO7dbw+MB5jBRx+YOjEOvo/CNKmHeCYMeOQVnz2U3WkgWUFHCMPk1bMPOAhDZKUyqPW62fiGNH73e6eLgbS6RGAYkYEepNPIECcMgnNfj4KmKhmlHZXPQmwYPJNqukeVXNiL1R8Wm8ibd9ADhsG2QBMhucBG3HXPrX5oDEhSdCPxYSWsFVcxHY4RzHHdnQigw046hjT6BfgSHrnbVxIc2F9HeAIjbY1F8WdnudKmnTSzbYJwv2KVAlWo1l/+umnY0GS1noTgBLdyz35MdxVDjNWwEFA24rPcyqOWBpPO8Bx+OEzWvHZT9URhrgCjokZQAg2w2dOO0huMHA+HRVwTJHRB8ARIeumpLY+5XlOpFIkQEjaG19FYCp1khnNy6M9+dvQc2/AeOhGiwXBdFTA0fJRAUcdFXAMLuDIwERgLjAf/m/FOVXAMQ1Hj4AjVNq3gQSAg/BTOsU6wlEt7ekvAI+IWZenCmhRgtQDbt4R5V4sdRKh0otVtNg2VUDncCxN/fb3CE5D6+2ogKPFowKOOirgGGzAMeijAo4pMroAx5gXr5c22b59u2oG7Efqtt/fiEu3bNmimiTI+uelKVy3XqMCjhaPCjjqqICjAo5pATj22GMP1uB1jM/w+fYDcETo9At6DdUpEfI+CVCoZlFGm5Ll+7EZ1imJ5VAqzeJxBRwDMCrgqKMCjgo4pgXgqGNiBsAxQYu0ijSLqhWsRwUcLR8VcNRRAUcFHFMacEQnwCxqoAaPiTlz5hBKtuJ8RjNUkkzQQgeSkqwfRy29gYspoWkrAYfyNEZxytO4ujJaUy6mZE1Z2Bj2Gc0Lp8CHmb6lhOwT9pfS4g/HHG274zGaUyM/ki8L97+R1OX24TwJwirgqIBjIEYFHHW0CnB0BmwRtHlN7L333ko+m4Bal10uMZf5qS9b91kt77EdrQEcv/zlF0rDPC59OjemCmdZgMbf62mjGeCY9svD5brrVug7oD8Pg50Y/Byv+SAVORdcvXu6X8feOHqYlUx8RjS2s6+NG5seQBVwVMDR+lEBRx0VcDyLRXnnQQcd1GgiDj300BihfK5Tl96awLnJr1y5Mo2E3pvA+gMMyKQDDqVjgAVnPUwEsx1OejoyssrXNwdA4OrHPpgdva6JetawAma5rwngzp1bbceNr2mCdP75S5iUMeIpjfX00PE/A54c42Ws6xnLpaHgaY1V/0MPbdT3h8CXHTHrfsCF41+8TFZgW1j0ayrofHMsFUCfqYCjAo7Wjgo46qiAY4yLdMT8+fM7Bx54YGevvfYCPFRqNELKuvTe8l4qas2aNUplJx1wSF8cd9xRgAW2wzpsBOe8AI5T2PZqztcAhNtuuypMyG82vXPWrr1A86OAjE8BBDoSx3l1dQNKrr76wjAlz9ehkUOgLo9667ABBm5SzbMWaOCeaz8aCbIw5sqoV5AujzoY6+2jGZP20Om3cwKAA3CwLdYHQZ8FoKUCjgo4Wjsq4KijAo6xLZmBPpQGNSfyqfAmVGG4OTe9ROoyqkqXMAn/ED//NzMJEzgmE3CkO+ORAQFNm2iN+/QFwGIAHMBBmvydEvOyNXQVUhrYByBkOOAABsLevLZ0Nk766I2lEWDT1OiII56LCcGUYDo0bWIJnPTIn3MFTKfh3wA46DrSp2CBNI/tU2Z8uv05J3bDAIdOxPFI+RwmpgKOAQMc0ei4zlpxc6+AY0yAI0D/qPxW59XR/2GyVQHHCEsayr2mU5dnzXYkeL4jQfrPIqL8j0kBHAScQ0NnYRy0aQYA3FB0ScRIhI1ZJ92BgUgfgvsEedoMDY/SVXdxaQmdFMuGOK4OScPoIRFr9wUYDsFFmiWM2J56EOhzoANxHFova0DNvHlHW4cdcQ4N4DjttBMBGP0QrNOoCbjRURLgKECmOZeHH95YAcf4Ag7pMAzYrgTEQKGeFHpdPNPzrhXfc5iyps14YdR2NXzP6QJ6q54VelWkffmmsQAWqTsMnaEhl74cz9gAcvv297LJBmaJnCvg+DXgaEWl4XQYFXBUwDEuC/t0ZbMXXXQRPQz2Y3iVizHeVSo0FQmyL+kcc8wc+gmB3g036bLFWkKnbf8WHR01Qwpb8aKkQj4k+OvwqHsin5PcpN+jAZM0h86LgATwIjjQZqRF9+x00f1455FHNmsbDUSUY2A3ABXpGjf4MCqnulFruARwOAYWRNDBkGiyJhAFmLxcEKuAYxwBhw7QOmvuv/++0mbd3ZwxFkZs/D9BCAycFIGv76hUGwGbvvewY6/xnUY8vATgtC/bGP4vr6Ut8ldDr1wjp2o5HnD5PqDW8TxnPO111nvsb3fDySuv/BOC6LgDvyzX+QuwccC27RyrnKdr2PnRD2Hrkj643f5taxufx/D3X/6fFoDj8ccfx3IP1IgtgV5WrTiXUYzcH/+5Ao4KOMZtiWDzvzqrV69OGuGvMsv6f6sS6P/R44nw4XDjJACl3Ximmabn3XCHr3Oz7RahjqZjopu4tE73uVhfgojjelx9OCYBcACAUm4Goa7vH4NFGOx7IerFZG3Y8JbOfvvtm/5CZ0p/AR/Nvk89dT5mwnbR4bw4zNlf68iJ6RDU00X5emCXmBhLBpRqE073Q3gM3AKgGK+Ay5swa3n9fTnOEmk5lVW0Pk1106WXLvPYsW2nS+hwwEEv5PqUJszv6Xeajp+XX35e53nPO9y56RhaQC4AFW3ReUl93tGc85lnnqSSC9jFuDiGsm8gzHGB5ykPOAZx0VxT/6vpvFTAUZeRFq3rQ/nepnw2N+mv+rHkRm/W/41q/FWNvyYccAB+W7deS7AbFu6dQEA8UD4ZV907MAUYCqXNuV7PzU19U8THRzbAYv36lQJtjO9uDkj5vc4llyxNSuMu+WksWjQ6Jwrc2oxjtYiCiYSVTEvrSd+l4/L1QI5qqAI4AAtMWJjAD3Tmzn2hYwWkvwEYwKI5ftoMvB0YwIpoM/40wIEpkwb0PoigvbeFC0/AzknZhcZelJTNTQVwYNW8b+8hWqIzCJ+dO7bGsQI8bglT8jqfAUBcAUcLlwo4KuCoy67LZ3WsTano6zPre1Vnn332ofHITf8VFXBUwDFWwBHNxLek50YDODAYuQ5fLc3WBPFZs2ZS0SudLoCDPgfgaKqRTj75pRgCzIAAbx/ahWMTgASpOexGU+I8e/ZzpUkE/GiDtjmWfWAU9JWiz3Fuud43ABzZdr0Sa0BC2iPpmbnRQD1GW5J70ckExkAEpgFYGQlwqKBK9+ehzo03rgqIfyAl3m8lSsbaABqpwPstry0pFVoigMP+gRPsCAaGMZ40EzbHMcOM3DktUiqDuFTAUQFHXXa9ZBb5P0165ZBDDunsueeenaOPPrpz2GGHtQpwJG2Cmnajl4YxGxZsiEwHtgphKgOOxYsXJ/i/j1C5V8AhnaFkGkORlMklnTPOWCj40+9gH4ABQRzgaALxggUvwkTYFpDABGAUiI55pkhJeC3QEk3PET5vuiDXkDJnugrsCBajEQMfe+wcAb8AjjAc1/gf4MBSCPwFcNgv1iNgYrXHIwEOaRZMRGFvvBbISEC6uTnHs89+pbRNARzAQm7SNzoflVnYFgDMewVMYgtwgJRRqq0eqYCjpUsFHBVw1GU3Wo6hoaHc6I8DMiLI3De58f04u7YKcDz11Efd9PltyHG7gaO4BQS6DhUN6VtzHzMxOgxVASzJ5c3NjK1XkeKxGzZ63Yy1tYBDoAYCFy1aFEHsvASSV0fHsILo19Mcd4l/Ne9rJeDAks2cOTMC3RN0N+Z4u1vAIfguX352bOr/znfYMBTnnHNKGLh7iX0FWyACYFDdQdArLcK2PiLoP6TNEPxpHZRA0zrQSmAFVClhNYAPbIntMCfKoaUylGIbWBBggREdUCH1woWWvoP2J+tvBngcH1iJC/IrgYi89umAY9Omy1PafQXxZ1mX5x+NZ8wFRM7OAftiABeuXyXgzgk7Azg4byyLkmy2/65/78O132/AQceV93i+VCqwGGbmbViqXl6a7+v/8hn9W6cuFXBUwFGX3aZU3Gx27tzJ74QraW64V+pd0yrAkeoVlStqx93o0c1y3PLdAoIbvhu58lhVMCpfUOsJCCepXsls+AQzSVUvtjWTZmluBjrZgMNnndnw24ePBKtbaGmkuyJWXOamTnOTwPMU9b4fMyM3wCR+Id/Oe9yYYPjpBLAvMczTNdg+UqXziNcm2P4wDNGWfGZ32E8C3HeTWvjXzLrviaDyXY450nAtFMDhf+t6GUkdnAu0YsyA2FQTHf9sfDhKRUh3RYuAXv7v7oljHVO5bmFyHu8QxEcSI/c8sDFEpDQdS5a8In9f71i9iKXLee7OkbcIQ71HLrr0KHr79FIWG8O7P/A99DrC8DwcsLfc9eV6cR8IYLsUwAU8PE4a6JNAZ/Qm3xFY6b9sq9Q+wO8863kkRZj7Qetdp/mN3UCMrkWFe4yqOIyq7teOO9oRpufeTpuXCjgq4KjL6B1ezaxbAzhykzbDJbQj/iOkM8MsgAOzoaQQ7YwyR7PL9aPcc7P7gO3ciJUccg1VscDMC3hxU59swJFzeqmuwsNHaPSvJRD+jF+KQFCaAEpTRLR4JnCIOSD29Xxm1JswIJgFJm+ZNV+Q2fydjPMiUtyez+OapBHeKQBkln11Kj++YCbrBikQOOZIw3MFcJTtehkAEKYM2Agr9cKAvNdOKadRIIZwVcUMFoLNfvH56PMAhhLE38Gvw/+9AA7fte+h15Hy4i9rg1Aq1oCHaGMusx6YAFbT8+itwER+g+8JoL/JMVw/vmtl9ppFJuX1u1yNsW+uR3/zG31j5/777ydOt3/Ox/HCudVxRztaHwcq4KiAoy4t6xY72oEinzHj4NDzxzbuoM95zv6qCwAJs0w3ftQ5Ol7KBeCIkn+FEkRghc5DiSWX0jAgCxkx8VgAXFoBOHal4QA4pLwAjnJDc8PWG2fz5s2p4HisCQS6QO/YsSPv+9qkmm7PZ/ChZja5bt0620fbsDRlmmuBDSAk4OtRj20zHikV1080DnOxIilb/Qpg1KMPR+OnUcqhJ2NgH5xDK4DNBBl/YSCGAw4sBMAheCaV8xIdqIGK/KYuD9vyl/4HcsP0PIlpw5JhNTTYTDrr+54TcOwKMMasRZtzCTAM/PJ9mJJxoAKOCjjqMsCAowAGzMW2bTfIsUudqDzgIElUR/2PzSCy41paAAe6u7weE0LTIeXCy2BgAYeZoWBSAIeUycUXXwxw+B+gKNvoEuwxwCEQYEWwHW7+wEkcXK8bL8AR7cMVnSeeeAJLMwrR6N+k2+9Z9A2+O98Xjw2loNIg4/19YA9cG6pFBG5lsa6Pfu4fs4apoFPBzEmd9Po7AIQwHcp/Pe434HAd+etac3247gBajBpzKI00pVV8r/5KcQC0tuHf47WuM9emx/ksPyZl63oDgMME3UUb4tqQ1puScaACjgo46jLAgMMNmdBPuqS4LOrwSn/BEIlwlIpfgNJPZd26N7OIFsyBk1LNYjuiPa3miRDZphcH0VYDDvnzCy+8sAAOIMPN201dDh17ELHhW8w602Pm9wUNwIMAEOXNHtoPH5thZulm76ZvVsoREeBohQ9HRJNEkfQ1mRGvjX39MQSjmCx+FkyyuLwWt1BiSxUlHGRdI6zLaXdUqqgqAVCMfPfvb177xS9uE+Rtm4B5L1CqLLZbtBo9zSzuoo0w9cgjZzsXYlPHFuhVkwAhzMCiHfowdq2kU4hXVdI4XtGIOE++G4CTay1g8ArXJ3t9YlPnz9af4JSImSV6tzGdYd/8N9j0ey0GqN+Ag701Rsq1kkqZPxI4sRZSKtIoUiRAB+YDkxYt1XraDoBDWb2Uh2uVXgggcQ1KAWLXpFscQ8rFNaxkekrGgQo4KuCoywADjh5HsZhuxbn0EXBEiPhTN3I36MJ4JOj9N/YiAsJvAh5u7n7cAIZ8uvVml9n/AwIB7QWKXD7dcOM3wwQC7LcVgCPVHyznzfoFUwBB6kvwTuB/fgTDxzO/UkECLPLgUF1CDKyihEhYmSo/DRb4AEKC4w0a9wnsympVnRgsz6ObmQvgqGYpwlFVLxoDAhSASYDbrcBLgNmf0v6wtsfAECkr2bXOMfMZn5aU0UcYeXEw5T4K0HBIlQJkv289cIGt4cvRPD744ANpQJT6Ol9gyTGYgI3UcwVQse14AA4MGXEnrYUhVQKMuj4IkYmLiZLz2fwklv9f9xhjpsrNNUh06hojRAaOXSvSdti1Iha1LgLbJcTQUzYOVMBRAUddpgHgGMTRBx8OVSpy79gK3YBVCahQIRo1A5VzFxBa7zQqQKtCwiAMq9JQGgssYBHCdP1Fqi8WqRDBZOXmvkaqDQvBi0OJLHtxYMA6pa/KUKVmVJIw02IoJq2WWfZVqj6SKmi6/6owYazFQh2DUrxfwjZ8Nq9bR2jsuYCXeRgSIMa5JZjeDbjw8eBgisEAMpxfwNGQfXofDMmUu9IccSflGuo8WKTz5ODZId1C/Oy4hdWw3r5KIzs+IwVwDJQPR8q4sSdJf757SseBCjgq4KjLxAOOUrLYisA+QQzLZBl/hY7/ER+EiGv/U87cMNs0M0VvD4S1OftyqRPpr1KVsWrVUgwH7w1pBoEfi4C5wHAw3QJSrNfRFyDAVGApBPWAjIUMvsIOfMY6Wh4AAPjAiDAHw6gUgMNzA/MABDieFIZUnjSPJnB8Mnh9SMk5vp4tUiXYF6XXtEWAj22AD2yMVB/mzfvIZ/DxAjikYgrgyPtZj90BVKQLAZ4COJL+Wg40SSUNNOAIw6HyBUMypeNABRwVcNRlYgGHm7eZmsAwMC6gcu6qXgQIM8ydO7fSEKDtzUxR75px5X0t02BMXt+s1+vk3lHt6PfqNDo2wIFh8Hnr+sv+m36CeZbPfhjguBbDgdmQziAWtr0W8NIUBXBkm1dxpQUCsBjNaw44YD+BHdCwPyXWqdb5bRqLcg4BH9v0WlHxhB2RCpGuIUgGNoAVAEeqRFomouMFwAuX09KLhfZDSsW1Yh0QxTkVGKFH0SiuMBxx9H2BVJKuxFIlzgsb0y0UNWhEBhpwTJc4UAFHBRx1mVjAoddDXj8fPS4vTYwnmLtRC7LEfkRygoycutkgwR9vAzNcsz/bcxRt8tZ3330dWtqN12tTBrrMNmaOjJBsk9nrNdYBCtnu8wIVAd5I5xd69zHgYLhRk3OT70fRAxdmxHL6AlMo+gVu8twmBQ+BTPDTbbSUcsrF63chSFTAMbbmbbQL3DmlEIAD6REBWHUSEItRcL1wi/V5u0aAWqmNfH/3RHOxGTvSNFZ78lfsnU9IZXUUx1cDMasWQgkzy3aBezEYqIVCowtTK5BCUZCxRFrMBJNCI9qiAf+RikILJaIMBA0XIimpixIRslHBFoqYIkaLhCTo1/kc5sJdaJY9b++++z3wQ9/zvnvv05/vfH7fc37nbHzB8xTM8nBGSckLJBEz73z3yaNHLcyb6O8VnwfkbBDeYC4CMJYjM8hzlhfzMSoJvVhQI+jhQhE6FA8q23I/Bkn3SRxlLjJnKY/O++Ex85LdUYSEyMkAkpinwCvzjQqml+Uh8b/E9e2+BRz5aAIOAYcsQeDgA//hw0Y+PFEK6BfBapBdBzh0VrHUyuBDnzg6K0C2rLJSxUFQSwOn75L17dvPUy3Uji9mxYrjYBXIKo+VKA7fdwAUFxeRBEijrKi0tWXZv4I8HW+Fj1Ni5cmKldWwOYlvoiJOlMFGfvf4/97e16xygSVkbe6f+0VuR/HgPjgWpQOnwvkJCRDLB2YEHFcDjngo7jJw47jLjqEgF2DA35t5RLJnNB+Yp/b14log/DyuNMRBAEWiquoO5ca5j/hx8cfxa513nej6qC6oKYDLP507me2lku9+QMAh4JAlCBw4YGpjsBJEkUDO5ntWckjYbEUEKqijQZMqpGRUg1u3nkOCJsYNXJizH8bRe+y6oaGSEA2gwYczH+L0zrDxGqtf6jawLZJrAC5ACGAALHBPxMm9BXlR0bMkFvIanoscAmCCNM4qlF0OtDanBDqrXVbdDkBPnnyJDM65SUhkS62HX+7dq2HlbU5oyt7Li1xTwHEJcCS4pZr5RpInikIuGwlyXr7m4nw2Z2bY2g3UCDhS7gcEHAIOWYLAQe0DnDrxd4CjuvplQIItgagG3kCtvf1NJGvUDiDCHO9jJHLCIQ4c4+MfEu9GzUACRy0hAQ8lhLwJciYACOLqSO8mR99BwXBZ++7dl1BSCG9ERZs4B5CDEsK2Q85PuIfVKB/ySNsUDCP2Tp0DdgbQd4VtmaguPB+BBHI+98P9IssDHYRXkPBRXTivgCNPgCOLQ8DxdybgCEHAURATrdDsqsCBYkDcHIdP/JtdBTh4gIPsfXIucNIAB0oDcjdKB86avicRcJDVj6MHLnDwUVyfugeoJpQ5J6Fvauox8W+Ag2sTRwcayPvgcfy+nsb+3yPsgqJBrka0EiaswkqYkArgwnsgDESYhBAR74UVLbF8wIhcAhrDATjkDBB+4X45j4BDwCHgyKgfEHAIOGTJJo3ikGklTi4FCW4k/hk4LBKiwCET+0bpIGmTMAhKAsWc2PHBrgFUAkIeVGAk/s12QvIlcPiWKzFG7gbXQEFBKucaUeEvwiIoI7SfvzD2D1DwGq4X/xk7IdbXP+OaAAxAwL1F4ReOJ87OfdtYAjLI3XAFpafnnael1LVLRcAh4MiqHxBwCDhkydfhYMsi+Q5JbosFVlAvCJEkWnWURNEHD96iJoO2xQo4BBwZ9gMCDgGHLHngQMlIujEa10RViRp9JTVQRFA5UE8EHAIOAUeG/YCAQ8AhU2nzvBwCDg0BR2H5AQGHgEMm4MjLIeDQEHAUlh8QcAg4ZAKOvBwCDg0BR2H5AbrjLi4uhiybgEN2VeAgCZPy3hq5H2wZzhxw3Lz5TF787gt1WA8aAcf/aAcHB96dOcsm4JBdFTg0rndkDjg0rn0IOP6DnZ2dAQy2u+7PnHfL5bx8Pc/o8Ly7uxv29vb8+zSbgEP2r210dNRWTPc1EhjDw8MhXy1XwHF8fJwXv+usjPX19VCIdt1+YHt7m/9Hq7nze8ilMf9HRkasBtAv4TxbW1sLDQ0N1pH4bWuT8FNIswk4ZDJZToBDJrvACsIPbG5uWsfiTyLgQOmwpn8/Ogw0NzdbrZ8fXIVYWlpCrbDihN85pCwsLFiDx0+tj9QbAIv/bHl52Soav2qtEj5wiOju7g49PT0OFRsbGyFuk5OTVt34I4fF1dXVkGYTcMhkMgGHLPWWNHAQYhkaGgqzs7PWWuFz4MGBYGxszKob/xEmJiaADd+dUl9f70pFVVWV9YL61vpEve6w0tHRYQ0iv/LH4+Pj/prOzs6ARVCzsrISbty4AbBYZeafrerxbyGtJuCQyWQCDlnqLWngQKmYnp52ECgrK7PO1u9aW4Xv48Dhu1IGBwfD/Py8H9/Y2Bj6+/tDb28v+RiEUVBBXOE4PDz0a7S2tjpoYPv7+7zGj6+trbVGle+nWuUQcMhkMgGHLPV23X5ga2sr9PX1haOjI5I8PZGzqanJlYu5uTmUCYeBrq4u67f0K4/9+YGBAVSKCDgIr3h45PT01MMlMzMzrpScnJw4cLS0tETA4WGZ9vZ2jnWQKSkp8STrtJqAQyaTCThkqbfr9gM7OzseEikvLw8VFRWhra3N1YjKyspQXV0dSktLHRDq6upCTU1N+Iu9s32p8g7jONEjVPSmN72roBf9DcGWUC8qgq31qqIHCIreDR+KYGDFYayoNcjBarhiK7XAnRoWmtNNtsSFHo8je3GGysQ5ROfT5uxoXut7wQE3cHPG0fvn+Xzg4pz78dwF8vtw3dfv+m3dutWqqqqmC4dqPSQoutav2bt3r65RbUdGOHTMhSNTUHry5Enbv3+/HTlyxL/HYjHPsoQIwgEACAcET7bHAb0CGRsbUw2FQt8VynjoU1kNSYUf6+/vV1bCt9PptH8KiYLuo326TudmtiUZ+q7akOloW69bRkZGdJ7u4eeGCMIBAAgHBA/jQPRBOAAA4YDgma9xQAWhylj8T4LNSiAcCAfAf4BwQG4xH51GHzx4YIWFhVZUVOS1F7Olu7vbLly44EWk7e3tlqsgHACAcEDwZHscuHfvnjf5qqur08wSTYfVTBVlOzR9VU2/VGOh8HqOnp4e6+vr8+N37tyxU6dOaRaLZrso26FjWl9F52au0X6dr3oN1WpoX+Ye+tRvBFswinAAAMIBi4JsjgMa8DUFNpFIWAZ97+rqssrKSnUI9VkkpaWl1tzcbMePH/cZLIcOHVJGQ8clKxpo1QzMZ6ocPHhQvTu037uLnj17Vn9HXiB68eJF9fDQ9dqv7/p9basXiBephgjCAQAIBwRPNscBZSAkDer0OV1CNBtFEqBMh2ad6Bz11pBMSBw0JVZdSCUlmiJbXV1t9+/ft4KCAquvr9f9XDiampokKRIJZUb0ysbPPXz4sLIg2lYjMYmK/0YqlbIQQTgAAOGA4Ml2huPEiROWTCYtgyRCoWZems4q8vPz1djLJUPcvn3brl+/7q9gamtrPe7evavXMd5lVKh7qIRDGQxNpdVrEwlJTU2NnTt3Tq9Z1Bpd/T4kN2qDHuwibggHACAcEDzZHgf0KkPSocyFXpvs2LFDn2reJQHwLMe+ffskF/8qHMpw6FXKw4cPPVOxc+dOF44DBw6ovkPCouMuHMXFxRIOz3BUVFRYZ2en1mzxZwgRhAMAEA4InmyPA8o+aF2UPXv2eJfQxsZGE1olVvt2796tBdnUetwXaBMNDQ0qMlWxqGdH2tratN6KshjKjPjrlLy8PImEBEP38U6jN27csNbWVs+giI6ODrU8939jPB73jEqIIBwAgHBA8MzDOKBsg2aJqBfHP6fMKmZ9D2U+zp8/r5kvXmw6PDys/ZmOozP2/9DxkEE4AADhgOCJ+jigmSaZHhyjo6NeRFpWVuZFobkCwgEACAcET9THgZKSEp95kssgHADw2sKxadMm27x5M0EsWKxevToSzzFTrF+/3jZs2BCJZ1moWLVqFcIBAHMWDoIgiNkGwgEAc1quW9X3BBGJ2L59eySeY6Y4c+aMZrlE4lkWOgYHBxEOAAAIk6iPA9Rw/A2EAwAAwiTq4wDCgXAAAMAiIOrjAMKBcAAAwCIg6uMAwoFwAADAIiDq4wDCgXAAAMAiIOrjAMKBcAAAwCIgiuPAwMCAlqL31V9Pnz5tV69e1bYWYvMl73MZhAMAAIIkiuOAFmK7deuWdxhdvny5rVixwjZu3GiPHz+2XAfhAACAIInqODA0NORL0C9ZssSWLl1qR48e9aXucx2EAwAAgiTK40A8HreVK1faunXrvNMmIBwAABAQ5eXlduzYMUsmk7Zr1y579OiR10gkEgmbzsupSZuYTNuLyfEFiV/7eu3NvDfs7XfesvH0mPZFOtKvYuLlhP7fEA6EAwAAVJS5ZcsWW7NmjS1btszWrl0rAfGCzCmbstE/h+zZL0/t6+eVFk+UWvkP1xYkypqu2fsV+fbRV+9pO4Aosaq2L6zu+ZeW6vvRxtK/IxwIBwBA7iKxiMVikg3VSPjy5y0tLS4bP/+WspvfX7JL1e/alZoi+6QhZjefXCFmEZ89uWwff1Nsl2sKX0WBfd74oQ380YdwIBwAALlLKpWybdu2STp8uun4i3F71vPURePT7z6wb3+qtrbeBDGHSPb+xd65/jSV5nH8r9jJZtc3bvaFq9lN9paY7MZMzGY1u+7OJZNJ9IXXGUJGZ4ZhBhQddGQQBgrF4SIgWC5yEShtKdW2p5a29AZtaekIMkqBAgVU1PE2KnL5Tp9f0k7m6iTTyYzl90k+OSU9fc4Jb86nPc/TBqC/rESl9TiqbDm4dneKg4ODg2EYZnWyvLyM3NxcrFmzBp3adkzfDqHRVYwS00FogmfFBZP9Ho0jatjHTPBMOTE4O/CtOicsKDK+i96r57G8sszBwTAMw6w+xMTGqzND2HP8/yjUp4kLI90KkEeNRgf7FOWmTBQa0siz/SdhGzPAP9OPwKz3K9a5i9DaX4bHiw85OBiGYZjVhXi3HZx2oaznCCosx6AebIA0ooF11IjekMT+AK2jBhguq6D0K3DyYhZpHFFhYKbvK9a7i9DSX8rBwcHBMAyzeljBChYWH2H+/hyKjOmosefDMW5G36Qd/VMO9jv0TrswEOlHcM7/denWiTtsE/9L+tSjb8oGb8QZt84t4+Dg4GAYhlkdiND47PN5eCbMtMy11p6HD3Wp4l25+ISDfYrVvbmocxVBe6mZ4iIw6/uGhhEVZMb06LYD/dO9cRWuQg4ODg6GYZjkZ2l5EcOzPlRaj6HElBnd5qDZU4E2XzX7A23uL6foKJLepUi7MNwGX8RNczZimq9qITdlQDvUBPe0Je4ZVwEHBwcHwzBM8iNiQ1wIG9wl4vbJL2LZ6LNoMKo1ZEBDXwlNFL1wuR3eiAu+GRKmKxoUmzLQNdQI15Q57hnXRxwcHBwMwzDJzZOlBWgCdai05cA7LZZv+tgfJ83nKO05goY+Oc3X8ETspHRFhWLTe9BcaoBjUopb68zn4ODgYBiGSW7EvI0z9ny0+2vgn/WwCbLOXYxTtg/gCJvQN20lDZ8q6dtFVZcU6J3Ux61x5nFwcHAwDMMkN18Gx2n4ZvrYxCgmkFJw2MMSXFM9pP7Tdprj0XnpDKzh83FPO09wcHBwMAzDJDex4GjzV8EbcbCJkVaeVNiOwTahh3PKRJ4fOUfBofykBj0T2rjVjlwODg4OhmGY5CYWHOcGKsUSTTZBKlwFqLAehWVCB/ukkdSNtFBwtAercXFcE7fa8SEHBwcHwzBMchMLjtaBCrFEk02MtPKk3JoN83gXbOELpPZyE2RSOtqClTCNd8atcuRwcHBwMAzDJDex4GjxlcM5ZWYTZC0Fx/u4OKaGZaKb7BpupOA4N1gB41h73CrHBxwcHBwMwzDJTSw4mn1lYokmmxhpqWuZ9QikUCfME12kZrgeMukdtA6WQR9qjVvpOMbBwcHBJIo7d+6gtrYWOTk5Qnp88+bNhI29sLCAGPPz8zT+3NwcBCsrKzCZTDAajfRz21/n/v37ePToEWKIfbxeL43DMMlOLDiafB/TEs2fWltYj56QDubRbnrcO5mc1jhPUHAYQu24OK4iVcMKCo6WwVJcCDXHPcXBwcHBJI7x8XFs27YNWq0W3d3dOHz4MAoKCvDkyRO62M/OzuLu3bt0sX/48KGICBEMsZCgfWZmZnD79m3a5/Hjx3jw4AFu3LgBmUyGwcHBeEwEg0GsXbsW1dXVFBu3bt3C5s2bkZqaKo5HgRGJROj1i4uLaGpqgtlspmPcu3ePQsPj8Ygt7X/t2jVcv34dS0tL4nzEeYnn6HgM86wTC46z3pOwhnUJ0Rzqwr9eeB4b/vIH/OnvG/DHv62HvPkEpCtqZJdmYv2f10WfW4es4nQYRzrR6WnE7rQdePW1l1CulME8pqVxeqLbN95/DVlF78A68dTj0m0LhaEcjeYq+vvn9LQzF6WWw9CPtkIa6yA7h2pQKKWhOXASutHGuKfsRzk4ODiYRAbHnj17xAWc1Ol0OHToEIVGXl4edu7cibS0NAwNDUEulyM9PR07duxAVVUVfRKSn5+P7du3Y9euXQgEAlCr1di7dy8OHDiATZs2ISsri0JCIOJj48aNyMjIoIiRJAlbt25FSkoKBcr+/fvFWBQ9fr8fW7ZsoeN1dHTQOWZnZ0OpVCIcDqO+vl6ch9ifxlEoFNi3bx/tZ7FYwDDPOrHgaPTKaYlmIpRGVdjw13V4ced/kVn4FtJyU1EnlSO7NAO//u1zSMnajTePp+C53/wKB4vejobGi1gfDZBX9r2A36//HepMFTSOKaTGy7v/h9cP7kKbW4FKTTFKWk+gsOE4/VaJfqQD8pZcHIqOoTCWQT1wFv/890Y8/59/QBNoRoP5FI6WZ+LjtnzaV+lpQIVKJl5DY3R/wb6Z90SVpWHcD2HPjBttN42MaNPIuHZr48KkARVEFhGxUQQXEBHZ950qir2q2PcqtpK1WCUiDTgO4C40UFXIGOMH8CM8c983qbJNJiFjKqYl50meVOWec997cv+5vzzvOfMduC+ttW6kHNnVSagfVfIz9S/bIW9Mh7wpAwOv2jFm7EFlXxHiCiJRPVCCcWnOGu+AT56U/5aEYVMb7q12srsWaqAYuw3tixIMrDRZXPEwTQAHycnJCV5eXsLCn2x/f390dnbi6NGjOHnyJCcdhw4dQl1dHcbHxxkcXr9+DblczqlEbm4uhoeHYTKZ+GPf39+PmJgYShnoP41Ty4SAgdOHrKwsSjXMiQMDSWxsLFJTU7GwsMAAo1QqGTi0Wi0yMzPx7t07ZGRkQKPR0DVeh06nQ3h4OI3R2uheBo3FxUXMzs6io6OD1zoyMoK5uTm6l2r+Kd6xsPCn2j/oLBIaL6PlcbEU+/dZxWOmbgYOnxBPpKnj2B2P6iUA8cBxzyMYW+nB/dVeKLSZaLyvQlZ1Iir6FKgZLoWN7VZU6AupDs/zvnQKoQkXkVQaja3fbMZ+F2dstvkbUlWxSCmPwU6nHTh26jB279uJ/MY0nmPz3VbImzOw50dH7Pt5D68lRh6B7NpkbPl6Ew657sNXmzYiThEJeUsGttvZwFmaa7vzG6h7FQi4fha7nO3x/T4H+IWdQVFbNuwd7fBP76P82zSuXusdSMCRLQFHIgZNGkvr5O5CFRRjUdA8L0K/qd5i9cNUARxCQlZMOAg8KHGgJIKBIT09nQHC0dGRxjhNq6qqojECEGp5cKKhVqtRWlrKQDE/P4+oqChKPrgVQqKWysrKCsBi4OB0o6Ghge5lQJmZmWE4KC8vh4uLCwICAuDj44Oenh5ONh49ekSpCY1TAsPAMT09DV9fX2rfUJuH4IZTDj8/P3h6etJ80VYR+uJlTjiaHxfi/n+6reJRo04CATs4ONvjiLuUOJz6CVWDhXDzOw7fUE/LvMHFdowYOjFq0qGsKw/OPznC/dwJ9Dxv5vF7prs4c8kDV+KDEC27gYMn9qL7aSPc/E/gWnKwBCJB2L7DBkGRfria9Cv6Xmrge+U0QuIuoOtJAy7FnKfrDBwXInyRqrqDA8eccXeuAV4X3RASGyhd98HpC79IdZsQnh6C9IpYTl58pDp0nf7fzr+GTdv+ikCpxuWYQHTO1K35Dqr/lYUyCTgGjM0Yeq1l6xYqUCABR/MzBXqNtRarppMFcAgJWRE4KB3gPRWkyclJAgH6gFOLg9omBBu0v4OTid7eXk4WgoKCqP3CkPH+/XuaQ2kFJSF/BA7ac/ERcFB7xmAwEFxwvaWlJQIOviclJYVghpOPqakpSl9oQyk/s6ysjIDDnHAwWBiNRuj1eh6Lj4+n/R+85yM6OprnCgl9yTIDR9Ocgo5oWsXDxg44H3ZEelUshgxt7MHlNviGncb3+x0wJP0fMXVI4HAcycpoFHdmY9u3W3A+4izaZ6pxb1VHdXjOmWB3hMRf4I/+ca8j6H7eyFByPTUYlUMKBN8JwIkzRzjVUPXJcPbKSQk4AqHql8HxgAOupQVjn4uTBAs+/KzDbgelGk3wvnySgSTghjf8wjzR96oFhe2ZkLWk4C9bvuK1ROaE4mryr6i9V4zQxCB4BLhK69yM7LrENd9B1cNMCTgS0G9swMBKC7tjXsXA0fRMjm5DtcWq6SQBHEJCVhKnA5WVlRbgWF1dJXDgzZfFxcXw8PAgMKANmby3w9XVlRIPaq1QukBJBbVj6INP+zAIEDiBIFF6kZCQwBtNSW/evEFtbS3DQFFREe3pYEhQqVRUi57Dz8vJyaGNorQXgyFkdHSU2iW0kZTq8z0TExOUcjCsvH37lhMRd3d3usb7P4SEvnSZgaNxTo7R1+1W8aBBC9td26V0YCPsf7DFd9L/8MzLUPbnSWmDPex2f4sfDu6S4OPvUOvzGRg2bNiAvRIY7D+2B5XDBVxnyNgKr2A3XI47j6i8MBzzOoyu5/VwO3ccYclBuJIQiF177SXoOIcdjraoGlEgINwbO/fY4WZ2CLbZbsHF23742m4r/K97Ikl5C4d/2Y+uZ3XwDvGQgOMcEssiJcDYCNezP2O7vQ0K2tL4v8upQzhw4h9w+nE3YhTXYeuwHZdiA+DgvAMyTfKa76DyYQZKf4tHr6EWelMDu/1VuQQct9D4LB9dBrXFyulEARxCQp9BBCHUtjCfPqF2CbdI+ITKhzkEBwwD/0P/T2vD/ByuibXvJ3ChEyofrYPWJiS0HmQGjoY5GYZXWq3iIZMWKeooROaEWKzU50rXW1ExJENoUiBCEwNROSLHkFGLvJZEy7zb8qtom6mw1CnSZUA1kIeaMQVkrSnQLzVD0ZEmwUUBWv+tRpQsjOulV9/BgEEjzSvErbxQqAfzcSs/FDelmhm1MShoT0X9g2LkNidyjZLuLKj0eeh+VY9kdZRU4wLyNckYWG5B02QZ17iREYza+4XQPa1BfEkErzmx/CZ65hvWegd88qR0Ig49y9XoM9ax216VMnA0PM2FbllpcflUggAOIaHPLPqwUyuEj6cKCQl9PuCon83H4Irms3jA2EK2Ti2TudYf6plazGPkT6lhuffjOc1Yux6bT56UTMSia7kCPcZqtvZlMeRjkah7mo2OpVKLy6biBXAICQkJCa1vmYGjbjYXelOTsHVMJ08YOHRLKnQZKtmal4UMHLVPstC2WGRx2VScAA4hISEhofWtD8CRQ0c0ha1k9XSKBBwx6Fwsx91lFbvlRQEDR82TDGgXFRaXTsYK4BASEhISWt8yA0fNTBZ6jTXC1jEfdS1+cAdtiyXoXC5jN73Ih+zeTVTMpqBlQQbN72yUTMYI4BASEhISWt8yA0f1TCa6DVXCVrJyOglFD6LR+nsh2peK2Y3PcyEbjZCgIwKF41EofxiH6sepKJ6IFsAhJCQkJLS+9QE40umIprCVrJxKlIDjNjT/bd9On9I6ozCA/7e1SVzALW6ouHJFEDWKCCo6JmmbSaepURYXUAGNILIYm8TENjE1dKJGBUXWp/OeKfqlodMZp1U8v5nnC3Nh7vDlPnPue8ISJl+qKab1FtpSebpuxI/+EfrfNbYKtEx9w4WDMcZYYcsVDr1HIVY0OVcTWnVVz8tgDonXJhLFuK6E2i7Dq0gAyXSC/vvdw7cIfPBg/f2S+IwLB2OMscKUKxwDnno83tJyria0edJuuYs+930YvAqY/M0Y8irQ9Vfh+AouHIwxxgrTZeGoEyuanCuKzlkJyVKGLqsMbdPfotN2D5K9BCpLCRcOxhhjt0+ucPS7a8WK5g2PhPGwCmPBdoxstMLoU2LY20TTm35XDXSLldAslEOyl/5jumZLxbqqmFRQGdO/UGDYp6RzGKMbbTAHOzARVn3tXui7D1d7cRw/xO7hO6zuzOOJbwhjLgk7n7e4cDDGGLtdLgtHDcY3O29cRoNtMHgb8cBTix4qFHIqDB2We2h9XkQHMnvnajHkVGJyVYcnPgMs4cewbn6XN5bwIzrIObGixYOFBqitcrRMFaFt+g46bcW0ZaJ1VKB3uRqDq/Uw+ZUwhzsu7uty1TWOnEw2g5P4F8STp1w4GGOM3S65wiFWNMdCrTCH265lxL2NBJQw+pugX6uHbqkS0mwJVNYS9MxVY8ChgGm5naYIy9szeLnnQ+R4lyYMsfMTnCaitAWSSJ0jlUkinUnli7iGro8nz3CaOEH0/AhHZ/v4cPAW3l8dVEomPBoMOZvRN18LtV1OJad7QYZ+9310zZVeFI6/wYWDMcbY7ZIrHB3Wu9A45ehzV2HQW4fhjUaMhJT/a4yBJui99ej3VEO7WE4Fo33mDlSWUoy4VHgWMGP13Sy9ojiI/YF0Jo3/UhZZnCVi2Dv6DeGPL7D4egrfrw1g0NGE1qkiLhyMMcZYjnhIvz/YxtzWU5jdavTO16DbLofKVkIPeI1Thl53JQbWamDw12N4owHDAQWMIkEFTMFGmEL/PsagiEL8Fv2mwd8Ava8O/StV6FkqpwmBylYsJgc0wTAstmA6NHkxuTiJH4lpBT30r4tsNouzZExMQujcxptIEKlMCkIOFw7GGGMMoDMGryMBuLYt+DkwTuce9M5msXEhzkTQJESaLYZ6vhQahwzaJTl0rgoqJX0rVfnjqaRre5bLqch0L5SJUkMbHLTJMVOMgQUFxj3d+GljFI5Xz6hg7MciYFw4GGOMFahUOono+TH2oxF8/LKDXz754d62Yib8CD/4hjDqkqCbqxGrnxTJVpY3XVYRGbT2KpiWO+iVw3ToIZbePMfm72t0PuJzdI/OXSTTiWs1vbhJuHAwxhgrWOJg5X70U77Q9CSbzYBx4WCMMcbYDfcn3X0jJ4EVCsMAAAAASUVORK5CYII=;" vertex="1" parent="DxRDYHymx_5IwCW-ZSEX-70">
          <mxGeometry x="800" y="560" width="540" height="217" as="geometry" />
        </mxCell>
      </root>
    </mxGraphModel>
  </diagram>
</mxfile>
